G75*
%MOIN*%
%OFA0B0*%
%FSLAX24Y24*%
%IPPOS*%
%LPD*%
%AMOC8*
5,1,8,0,0,1.08239X$1,22.5*
%
%ADD10R,0.0870X0.0240*%
%ADD11R,0.0315X0.0354*%
%ADD12R,0.0394X0.0433*%
%ADD13R,0.0551X0.0630*%
%ADD14R,0.0157X0.0276*%
%ADD15R,0.0315X0.0472*%
%ADD16R,0.0472X0.0315*%
D10*
X009416Y007959D03*
X009416Y008459D03*
X009416Y008959D03*
X009416Y009459D03*
X011476Y009459D03*
X011476Y008959D03*
X011476Y008459D03*
X011476Y007959D03*
D11*
X006144Y003449D03*
X005770Y002622D03*
X006518Y002622D03*
D12*
X004626Y002647D03*
X004626Y003316D03*
X005374Y004014D03*
X005374Y004683D03*
X009250Y003933D03*
X007940Y003526D03*
X009250Y003264D03*
X007940Y002857D03*
X012047Y006746D03*
X012047Y007415D03*
D13*
X004148Y005290D03*
X003045Y005290D03*
D14*
X010125Y005743D03*
X010380Y005743D03*
X010636Y005743D03*
X010636Y006412D03*
X010380Y006412D03*
X010125Y006412D03*
D15*
X013530Y009030D03*
X014239Y009030D03*
D16*
X015066Y009038D03*
X015066Y009747D03*
X014940Y008089D03*
X014314Y008086D03*
X013699Y008089D03*
X013109Y008089D03*
X013109Y007381D03*
X013699Y007381D03*
X014314Y007377D03*
X014940Y007381D03*
M02*
