G75*
%MOIN*%
%OFA0B0*%
%FSLAX24Y24*%
%IPPOS*%
%LPD*%
%AMOC8*
5,1,8,0,0,1.08239X$1,22.5*
%
%ADD10C,0.1260*%
%ADD11C,0.0400*%
%ADD12R,0.0910X0.0280*%
%ADD13R,0.0355X0.0394*%
%ADD14R,0.0434X0.0473*%
%ADD15R,0.0591X0.0670*%
%ADD16C,0.0634*%
%ADD17C,0.0985*%
%ADD18C,0.0780*%
%ADD19R,0.0197X0.0316*%
%ADD20R,0.0355X0.0512*%
%ADD21R,0.0512X0.0355*%
%ADD22R,0.0780X0.0780*%
D10*
X001089Y001204D03*
X017034Y001204D03*
X017034Y009865D03*
X001089Y009865D03*
D11*
X005892Y008448D02*
X005894Y008475D01*
X005900Y008502D01*
X005909Y008528D01*
X005922Y008552D01*
X005938Y008575D01*
X005957Y008594D01*
X005979Y008611D01*
X006003Y008625D01*
X006028Y008635D01*
X006055Y008642D01*
X006082Y008645D01*
X006110Y008644D01*
X006137Y008639D01*
X006163Y008631D01*
X006187Y008619D01*
X006210Y008603D01*
X006231Y008585D01*
X006248Y008564D01*
X006263Y008540D01*
X006274Y008515D01*
X006282Y008489D01*
X006286Y008462D01*
X006286Y008434D01*
X006282Y008407D01*
X006274Y008381D01*
X006263Y008356D01*
X006248Y008332D01*
X006231Y008311D01*
X006210Y008293D01*
X006188Y008277D01*
X006163Y008265D01*
X006137Y008257D01*
X006110Y008252D01*
X006082Y008251D01*
X006055Y008254D01*
X006028Y008261D01*
X006003Y008271D01*
X005979Y008285D01*
X005957Y008302D01*
X005938Y008321D01*
X005922Y008344D01*
X005909Y008368D01*
X005900Y008394D01*
X005894Y008421D01*
X005892Y008448D01*
X008569Y005771D02*
X008571Y005798D01*
X008577Y005825D01*
X008586Y005851D01*
X008599Y005875D01*
X008615Y005898D01*
X008634Y005917D01*
X008656Y005934D01*
X008680Y005948D01*
X008705Y005958D01*
X008732Y005965D01*
X008759Y005968D01*
X008787Y005967D01*
X008814Y005962D01*
X008840Y005954D01*
X008864Y005942D01*
X008887Y005926D01*
X008908Y005908D01*
X008925Y005887D01*
X008940Y005863D01*
X008951Y005838D01*
X008959Y005812D01*
X008963Y005785D01*
X008963Y005757D01*
X008959Y005730D01*
X008951Y005704D01*
X008940Y005679D01*
X008925Y005655D01*
X008908Y005634D01*
X008887Y005616D01*
X008865Y005600D01*
X008840Y005588D01*
X008814Y005580D01*
X008787Y005575D01*
X008759Y005574D01*
X008732Y005577D01*
X008705Y005584D01*
X008680Y005594D01*
X008656Y005608D01*
X008634Y005625D01*
X008615Y005644D01*
X008599Y005667D01*
X008586Y005691D01*
X008577Y005717D01*
X008571Y005744D01*
X008569Y005771D01*
D12*
X009416Y007959D03*
X009416Y008459D03*
X009416Y008959D03*
X009416Y009459D03*
X011476Y009459D03*
X011476Y008959D03*
X011476Y008459D03*
X011476Y007959D03*
D13*
X006144Y003449D03*
X005770Y002622D03*
X006518Y002622D03*
D14*
X007940Y002857D03*
X009250Y003264D03*
X007940Y003526D03*
X009250Y003933D03*
X005374Y004014D03*
X005374Y004683D03*
X004626Y003316D03*
X004626Y002647D03*
X012047Y006746D03*
X012047Y007415D03*
D15*
X004148Y005290D03*
X003045Y005290D03*
D16*
X007592Y009481D03*
D17*
X007592Y001611D03*
D18*
X009321Y001828D03*
X010321Y001728D03*
X011321Y001828D03*
X002797Y002400D03*
X002697Y001400D03*
X002697Y003400D03*
X002693Y007463D03*
X002793Y008463D03*
X002693Y009463D03*
D19*
X010125Y006412D03*
X010380Y006412D03*
X010636Y006412D03*
X010636Y005743D03*
X010380Y005743D03*
X010125Y005743D03*
D20*
X013530Y009030D03*
X014239Y009030D03*
D21*
X015066Y009038D03*
X015066Y009747D03*
X014940Y008089D03*
X014314Y008086D03*
X013699Y008089D03*
X013109Y008089D03*
X013109Y007381D03*
X013699Y007381D03*
X014314Y007377D03*
X014940Y007381D03*
D22*
X012321Y001728D03*
M02*
