%
M48
M72
T01C0.0157
T02C0.0197
T03C0.0394
T04C0.1220
%
T01
X4129Y6244
X4129Y7244
X4129Y8244
X4129Y9244
X4129Y10244
X4129Y11244
X5129Y11244
X5129Y10244
X5129Y9244
X5129Y8244
X5129Y7244
X5129Y6244
X6129Y6244
X6129Y7244
X6129Y8244
X6129Y9244
X6129Y10244
X6129Y11244
X7129Y11244
X7129Y10244
X7129Y9244
X7129Y8244
X7129Y7244
X7129Y6244
X7129Y5244
X7129Y4244
X6129Y4244
X6129Y5244
X8129Y5244
X8129Y6244
X8129Y7244
X8129Y8244
X8129Y9244
X8129Y10244
X8129Y11244
X9129Y11337
X8629Y12244
X7629Y12244
X8129Y13244
X7673Y13820
X7129Y13244
X6629Y12244
X5554Y13887
X4869Y13895
X4860Y15370
X5556Y15374
X6591Y15325
X7191Y15925
X7791Y15325
X8391Y15925
X8891Y15325
X9291Y16025
X9129Y16744
X9129Y17744
X9129Y18744
X9129Y19744
X9129Y20744
X9129Y21744
X9129Y22744
X9129Y23744
X8129Y23744
X8129Y22744
X8129Y21744
X8129Y20744
X8129Y19744
X8129Y18744
X8129Y17744
X7629Y16744
X7129Y17744
X7129Y18744
X7129Y19744
X7129Y20744
X7129Y21744
X7129Y22744
X7129Y23744
X6129Y23744
X6129Y22744
X6129Y21744
X6129Y20744
X6129Y19744
X6129Y18744
X6129Y17744
X6591Y16725
X5129Y17744
X5129Y18744
X5129Y19744
X5129Y20744
X5129Y21744
X5129Y22744
X4129Y22744
X4129Y21744
X4129Y20744
X4129Y19744
X4129Y18744
X4129Y17744
X8991Y13825
X9129Y13244
X9129Y10244
X9129Y9244
X9129Y8244
X9129Y7244
X9129Y6244
X9129Y5244
X9129Y4244
X8129Y4244
X12735Y4318
X13235Y4318
X13735Y4318
X13735Y5318
X13235Y5318
X12735Y5318
X12735Y6318
X13235Y6318
X13735Y6318
X12735Y7318
X12735Y8418
X12735Y9318
X12735Y10318
X12735Y11318
X12735Y12318
X12735Y13318
X12735Y14318
X13735Y14318
X13735Y13318
X13735Y12318
X13735Y11318
X13735Y10318
X13735Y9318
X13735Y8418
X15035Y9318
X16035Y9318
X16735Y9318
X16735Y8218
X16035Y8218
X17235Y7218
X17735Y7218
X18735Y7218
X19735Y7218
X19735Y8218
X18735Y8218
X17735Y8218
X17735Y9318
X18735Y9318
X19735Y9318
X19735Y10418
X19735Y11318
X19735Y12318
X19735Y13318
X18735Y13318
X18735Y12318
X18735Y11318
X18735Y10418
X17735Y10418
X17735Y11318
X17735Y12318
X16735Y12318
X16235Y12318
X16135Y11318
X16735Y11318
X16735Y10418
X16135Y10418
X15085Y10318
X15135Y11318
X15135Y12318
X15135Y13318
X15335Y14018
X16255Y13758
X16755Y13758
X17255Y13758
X17525Y17078
X17735Y18318
X17235Y18818
X17535Y19418
X16735Y19318
X16035Y19118
X15735Y18318
X16735Y18318
X18735Y18318
X19735Y17318
X18285Y21168
X17785Y21268
X18285Y21868
X18735Y23318
X19535Y22918
X19535Y22118
X16885Y23618
X16735Y24318
X15785Y24068
X14835Y22918
X15585Y22818
X14685Y21368
X14085Y21468
X14085Y20968
X12735Y19318
X12435Y20218
X12435Y21568
X12535Y22918
X13735Y23118
X13735Y24318
X14735Y24218
X15735Y21068
X16285Y21068
X13735Y18318
X13735Y17318
X14735Y17318
X13735Y16318
X12735Y16318
X12735Y17318
X12735Y18318
X15835Y6218
X15835Y5718
X15835Y5318
X15835Y4918
X15835Y4518
X15435Y4518
X15435Y4918
X15435Y5318
X15435Y5718
X17035Y5718
X17435Y5718
X17435Y5318
X17435Y4918
X17435Y4518
X17035Y4518
X17035Y4918
X17035Y5318
X17035Y6218
X17935Y6218
X18735Y6218
X19135Y5718
X19735Y5718
X19735Y6218
T02
X14615Y14247
X15848Y14926
X15547Y16487
X17697Y16627
X19348Y16894
T03
X19706Y18372
X19706Y19512
X17297Y21947
X16297Y22047
X15297Y21947
X12857Y23819
X17897Y23819
X19696Y15106
X19696Y13966
T04
X4553Y4498
X19425Y4369
X19437Y23832
X4590Y23893
M30
