G75*
G70*
%OFA0B0*%
%FSLAX24Y24*%
%IPPOS*%
%LPD*%
%AMOC8*
5,1,8,0,0,1.08239X$1,22.5*
%
%ADD10C,0.0000*%
%ADD11R,0.0472X0.0315*%
%ADD12R,0.0433X0.0394*%
%ADD13R,0.0276X0.0236*%
%ADD14R,0.0315X0.0315*%
%ADD15R,0.0630X0.0551*%
%ADD16C,0.0740*%
%ADD17R,0.2000X0.0450*%
%ADD18R,0.2000X0.0900*%
%ADD19C,0.0760*%
%ADD20R,0.0870X0.0240*%
%ADD21R,0.0551X0.0394*%
%ADD22R,0.0276X0.0157*%
%ADD23R,0.0394X0.0433*%
%ADD24R,0.0433X0.0157*%
%ADD25R,0.0450X0.2000*%
%ADD26R,0.0900X0.2000*%
%ADD27C,0.0160*%
%ADD28C,0.0317*%
%ADD29C,0.0120*%
%ADD30C,0.0100*%
%ADD31C,0.0140*%
%ADD32C,0.0277*%
%ADD33C,0.0300*%
%ADD34C,0.0110*%
%ADD35C,0.0200*%
D10*
X003680Y003559D02*
X003693Y024777D01*
X020273Y024777D01*
X020280Y003553D01*
X003680Y003559D01*
X003943Y004498D02*
X003945Y004547D01*
X003951Y004596D01*
X003961Y004644D01*
X003974Y004691D01*
X003992Y004737D01*
X004013Y004781D01*
X004037Y004824D01*
X004065Y004864D01*
X004096Y004903D01*
X004130Y004938D01*
X004167Y004971D01*
X004206Y005000D01*
X004248Y005026D01*
X004291Y005049D01*
X004337Y005068D01*
X004383Y005084D01*
X004431Y005096D01*
X004479Y005104D01*
X004528Y005108D01*
X004578Y005108D01*
X004627Y005104D01*
X004675Y005096D01*
X004723Y005084D01*
X004769Y005068D01*
X004815Y005049D01*
X004858Y005026D01*
X004900Y005000D01*
X004939Y004971D01*
X004976Y004938D01*
X005010Y004903D01*
X005041Y004864D01*
X005069Y004824D01*
X005093Y004781D01*
X005114Y004737D01*
X005132Y004691D01*
X005145Y004644D01*
X005155Y004596D01*
X005161Y004547D01*
X005163Y004498D01*
X005161Y004449D01*
X005155Y004400D01*
X005145Y004352D01*
X005132Y004305D01*
X005114Y004259D01*
X005093Y004215D01*
X005069Y004172D01*
X005041Y004132D01*
X005010Y004093D01*
X004976Y004058D01*
X004939Y004025D01*
X004900Y003996D01*
X004858Y003970D01*
X004815Y003947D01*
X004769Y003928D01*
X004723Y003912D01*
X004675Y003900D01*
X004627Y003892D01*
X004578Y003888D01*
X004528Y003888D01*
X004479Y003892D01*
X004431Y003900D01*
X004383Y003912D01*
X004337Y003928D01*
X004291Y003947D01*
X004248Y003970D01*
X004206Y003996D01*
X004167Y004025D01*
X004130Y004058D01*
X004096Y004093D01*
X004065Y004132D01*
X004037Y004172D01*
X004013Y004215D01*
X003992Y004259D01*
X003974Y004305D01*
X003961Y004352D01*
X003951Y004400D01*
X003945Y004449D01*
X003943Y004498D01*
X003851Y012448D02*
X003851Y016848D01*
X003980Y023893D02*
X003982Y023942D01*
X003988Y023991D01*
X003998Y024039D01*
X004011Y024086D01*
X004029Y024132D01*
X004050Y024176D01*
X004074Y024219D01*
X004102Y024259D01*
X004133Y024298D01*
X004167Y024333D01*
X004204Y024366D01*
X004243Y024395D01*
X004285Y024421D01*
X004328Y024444D01*
X004374Y024463D01*
X004420Y024479D01*
X004468Y024491D01*
X004516Y024499D01*
X004565Y024503D01*
X004615Y024503D01*
X004664Y024499D01*
X004712Y024491D01*
X004760Y024479D01*
X004806Y024463D01*
X004852Y024444D01*
X004895Y024421D01*
X004937Y024395D01*
X004976Y024366D01*
X005013Y024333D01*
X005047Y024298D01*
X005078Y024259D01*
X005106Y024219D01*
X005130Y024176D01*
X005151Y024132D01*
X005169Y024086D01*
X005182Y024039D01*
X005192Y023991D01*
X005198Y023942D01*
X005200Y023893D01*
X005198Y023844D01*
X005192Y023795D01*
X005182Y023747D01*
X005169Y023700D01*
X005151Y023654D01*
X005130Y023610D01*
X005106Y023567D01*
X005078Y023527D01*
X005047Y023488D01*
X005013Y023453D01*
X004976Y023420D01*
X004937Y023391D01*
X004895Y023365D01*
X004852Y023342D01*
X004806Y023323D01*
X004760Y023307D01*
X004712Y023295D01*
X004664Y023287D01*
X004615Y023283D01*
X004565Y023283D01*
X004516Y023287D01*
X004468Y023295D01*
X004420Y023307D01*
X004374Y023323D01*
X004328Y023342D01*
X004285Y023365D01*
X004243Y023391D01*
X004204Y023420D01*
X004167Y023453D01*
X004133Y023488D01*
X004102Y023527D01*
X004074Y023567D01*
X004050Y023610D01*
X004029Y023654D01*
X004011Y023700D01*
X003998Y023747D01*
X003988Y023795D01*
X003982Y023844D01*
X003980Y023893D01*
X018827Y023832D02*
X018829Y023881D01*
X018835Y023930D01*
X018845Y023978D01*
X018858Y024025D01*
X018876Y024071D01*
X018897Y024115D01*
X018921Y024158D01*
X018949Y024198D01*
X018980Y024237D01*
X019014Y024272D01*
X019051Y024305D01*
X019090Y024334D01*
X019132Y024360D01*
X019175Y024383D01*
X019221Y024402D01*
X019267Y024418D01*
X019315Y024430D01*
X019363Y024438D01*
X019412Y024442D01*
X019462Y024442D01*
X019511Y024438D01*
X019559Y024430D01*
X019607Y024418D01*
X019653Y024402D01*
X019699Y024383D01*
X019742Y024360D01*
X019784Y024334D01*
X019823Y024305D01*
X019860Y024272D01*
X019894Y024237D01*
X019925Y024198D01*
X019953Y024158D01*
X019977Y024115D01*
X019998Y024071D01*
X020016Y024025D01*
X020029Y023978D01*
X020039Y023930D01*
X020045Y023881D01*
X020047Y023832D01*
X020045Y023783D01*
X020039Y023734D01*
X020029Y023686D01*
X020016Y023639D01*
X019998Y023593D01*
X019977Y023549D01*
X019953Y023506D01*
X019925Y023466D01*
X019894Y023427D01*
X019860Y023392D01*
X019823Y023359D01*
X019784Y023330D01*
X019742Y023304D01*
X019699Y023281D01*
X019653Y023262D01*
X019607Y023246D01*
X019559Y023234D01*
X019511Y023226D01*
X019462Y023222D01*
X019412Y023222D01*
X019363Y023226D01*
X019315Y023234D01*
X019267Y023246D01*
X019221Y023262D01*
X019175Y023281D01*
X019132Y023304D01*
X019090Y023330D01*
X019051Y023359D01*
X019014Y023392D01*
X018980Y023427D01*
X018949Y023466D01*
X018921Y023506D01*
X018897Y023549D01*
X018876Y023593D01*
X018858Y023639D01*
X018845Y023686D01*
X018835Y023734D01*
X018829Y023783D01*
X018827Y023832D01*
X018815Y004369D02*
X018817Y004418D01*
X018823Y004467D01*
X018833Y004515D01*
X018846Y004562D01*
X018864Y004608D01*
X018885Y004652D01*
X018909Y004695D01*
X018937Y004735D01*
X018968Y004774D01*
X019002Y004809D01*
X019039Y004842D01*
X019078Y004871D01*
X019120Y004897D01*
X019163Y004920D01*
X019209Y004939D01*
X019255Y004955D01*
X019303Y004967D01*
X019351Y004975D01*
X019400Y004979D01*
X019450Y004979D01*
X019499Y004975D01*
X019547Y004967D01*
X019595Y004955D01*
X019641Y004939D01*
X019687Y004920D01*
X019730Y004897D01*
X019772Y004871D01*
X019811Y004842D01*
X019848Y004809D01*
X019882Y004774D01*
X019913Y004735D01*
X019941Y004695D01*
X019965Y004652D01*
X019986Y004608D01*
X020004Y004562D01*
X020017Y004515D01*
X020027Y004467D01*
X020033Y004418D01*
X020035Y004369D01*
X020033Y004320D01*
X020027Y004271D01*
X020017Y004223D01*
X020004Y004176D01*
X019986Y004130D01*
X019965Y004086D01*
X019941Y004043D01*
X019913Y004003D01*
X019882Y003964D01*
X019848Y003929D01*
X019811Y003896D01*
X019772Y003867D01*
X019730Y003841D01*
X019687Y003818D01*
X019641Y003799D01*
X019595Y003783D01*
X019547Y003771D01*
X019499Y003763D01*
X019450Y003759D01*
X019400Y003759D01*
X019351Y003763D01*
X019303Y003771D01*
X019255Y003783D01*
X019209Y003799D01*
X019163Y003818D01*
X019120Y003841D01*
X019078Y003867D01*
X019039Y003896D01*
X019002Y003929D01*
X018968Y003964D01*
X018937Y004003D01*
X018909Y004043D01*
X018885Y004086D01*
X018864Y004130D01*
X018846Y004176D01*
X018833Y004223D01*
X018823Y004271D01*
X018817Y004320D01*
X018815Y004369D01*
X018635Y003851D02*
X014235Y003851D01*
D11*
X016233Y016786D03*
X016233Y017495D03*
X016898Y017492D03*
X016898Y016783D03*
D12*
X017843Y015740D03*
X018512Y015740D03*
X018628Y015056D03*
X018627Y014448D03*
X018628Y013871D03*
X017959Y013871D03*
X017958Y014448D03*
X017959Y015056D03*
X017346Y014253D03*
X016677Y014253D03*
X016459Y013111D03*
X015790Y013111D03*
X017290Y013111D03*
X017959Y013111D03*
X015291Y018485D03*
X015289Y019113D03*
X015287Y019726D03*
X014618Y019726D03*
X014620Y019113D03*
X014622Y018485D03*
X014625Y020472D03*
X015294Y020472D03*
X018123Y019030D03*
X018792Y019030D03*
X010350Y015237D03*
G36*
X010560Y014382D02*
X010129Y014381D01*
X010128Y014774D01*
X010559Y014775D01*
X010560Y014382D01*
G37*
G36*
X009890Y014380D02*
X009459Y014379D01*
X009458Y014772D01*
X009889Y014773D01*
X009890Y014380D01*
G37*
X009681Y015237D03*
X013442Y007487D03*
X014111Y007487D03*
D13*
X006780Y014100D03*
X005989Y014100D03*
X005989Y014616D03*
D14*
X006780Y014577D03*
D15*
X013087Y021175D03*
X013087Y022278D03*
X013667Y020063D03*
X013667Y018960D03*
D16*
X015297Y021947D03*
X016297Y022047D03*
X017297Y021947D03*
X019706Y019512D03*
X019706Y018372D03*
X019696Y015106D03*
X019696Y013966D03*
D17*
X004861Y014648D03*
D18*
X004861Y016388D03*
X004861Y012908D03*
D19*
X012857Y023819D03*
X017897Y023819D03*
D20*
X016677Y016238D03*
X016677Y015738D03*
X016677Y015238D03*
X016677Y014738D03*
X014617Y014738D03*
X014617Y015238D03*
X014617Y015738D03*
X014617Y016238D03*
D21*
X016098Y019724D03*
X016098Y020472D03*
X016964Y020098D03*
X017927Y020136D03*
X018793Y020510D03*
X018793Y019762D03*
D22*
X018749Y017496D03*
X018749Y017240D03*
X018749Y016984D03*
X018080Y016984D03*
X018080Y017240D03*
X018080Y017496D03*
D23*
X019076Y016409D03*
X019076Y015740D03*
X019590Y020409D03*
X019590Y021078D03*
D24*
X016436Y007073D03*
X016436Y006817D03*
X016436Y006561D03*
X016436Y006305D03*
X014664Y006305D03*
X014664Y006561D03*
X014664Y006817D03*
X014664Y007073D03*
D25*
X016435Y004861D03*
D26*
X014695Y004861D03*
X018175Y004861D03*
D27*
X016436Y006561D02*
X014664Y006561D01*
X014664Y006817D02*
X015427Y006817D01*
X015790Y013111D01*
X015848Y013111D02*
X015848Y014926D01*
X015333Y015237D01*
X014617Y015238D01*
X014617Y015738D02*
X016677Y015238D01*
X017959Y015056D01*
X018512Y015740D01*
X019075Y015740D01*
X019076Y015740D01*
X019472Y015761D02*
X020076Y015761D01*
X020076Y015603D02*
X019986Y015603D01*
X020019Y015589D02*
X019809Y015676D01*
X019583Y015676D01*
X019472Y015630D01*
X019472Y016039D01*
X019437Y016075D01*
X019472Y016110D01*
X019472Y016557D01*
X019551Y016590D01*
X019651Y016691D01*
X019706Y016822D01*
X019706Y016965D01*
X019651Y017097D01*
X019628Y017121D01*
X019628Y017288D01*
X019628Y017343D01*
X019628Y017344D01*
X019607Y017395D01*
X019586Y017446D01*
X019585Y017447D01*
X019546Y017486D01*
X019384Y017650D01*
X019345Y017689D01*
X019306Y017728D01*
X019306Y017728D01*
X019305Y017729D01*
X019254Y017750D01*
X019204Y017771D01*
X019203Y017771D01*
X019202Y017772D01*
X019147Y017772D01*
X019092Y017772D01*
X019092Y017772D01*
X018973Y017772D01*
X018970Y017775D01*
X018529Y017775D01*
X018415Y017661D01*
X018301Y017775D01*
X018138Y017775D01*
X018135Y017776D01*
X017293Y017773D01*
X017217Y017849D01*
X016579Y017849D01*
X016566Y017837D01*
X016552Y017852D01*
X015913Y017852D01*
X015796Y017735D01*
X015796Y017254D01*
X015910Y017140D01*
X015796Y017026D01*
X015796Y016744D01*
X015750Y016790D01*
X015706Y016808D01*
X015105Y018108D01*
X015273Y018108D01*
X015273Y018466D01*
X015310Y018466D01*
X015310Y018503D01*
X015688Y018503D01*
X015688Y018705D01*
X015676Y018751D01*
X015657Y018784D01*
X015706Y018833D01*
X015706Y019360D01*
X015739Y019327D01*
X016456Y019327D01*
X016573Y019444D01*
X016573Y019761D01*
X016578Y019757D01*
X016619Y019733D01*
X016665Y019721D01*
X016946Y019721D01*
X016946Y020079D01*
X016982Y020079D01*
X016982Y019721D01*
X017263Y019721D01*
X017309Y019733D01*
X017350Y019757D01*
X017384Y019790D01*
X017407Y019831D01*
X017420Y019877D01*
X017420Y020079D01*
X016982Y020079D01*
X016982Y020116D01*
X016946Y020116D01*
X016946Y020474D01*
X016665Y020474D01*
X016619Y020462D01*
X016578Y020439D01*
X016573Y020434D01*
X016573Y020751D01*
X016456Y020868D01*
X015739Y020868D01*
X015667Y020796D01*
X015594Y020869D01*
X015575Y020869D01*
X015576Y021445D01*
X015620Y021463D01*
X015780Y021624D01*
X015819Y021718D01*
X015974Y021563D01*
X016183Y021477D01*
X016399Y021477D01*
X016819Y021002D01*
X017256Y020474D01*
X016982Y020474D01*
X016982Y020116D01*
X017420Y020116D01*
X017420Y020277D01*
X017451Y020239D01*
X017451Y019856D01*
X017568Y019739D01*
X018285Y019739D01*
X018317Y019771D01*
X018317Y019482D01*
X018403Y019396D01*
X018363Y019406D01*
X018141Y019406D01*
X018141Y019048D01*
X018105Y019048D01*
X018105Y019406D01*
X017883Y019406D01*
X017837Y019394D01*
X017796Y019371D01*
X017762Y019337D01*
X017739Y019296D01*
X017726Y019250D01*
X017726Y019048D01*
X018105Y019048D01*
X018105Y019011D01*
X018141Y019011D01*
X018141Y018653D01*
X018363Y018653D01*
X018409Y018665D01*
X018442Y018684D01*
X018493Y018633D01*
X019092Y018633D01*
X019209Y018750D01*
X019209Y018933D01*
X019387Y019027D01*
X019592Y018942D01*
X019819Y018942D01*
X020029Y019028D01*
X020075Y019074D01*
X020075Y018780D01*
X020064Y018791D01*
X019994Y018842D01*
X019917Y018881D01*
X019834Y018908D01*
X019749Y018922D01*
X019724Y018922D01*
X019724Y018390D01*
X019687Y018390D01*
X019687Y018353D01*
X019724Y018353D01*
X019724Y017822D01*
X019687Y017822D01*
X019687Y018353D01*
X019156Y018353D01*
X019156Y018328D01*
X019169Y018243D01*
X019196Y018161D01*
X019235Y018083D01*
X019286Y018013D01*
X019347Y017952D01*
X019417Y017901D01*
X019495Y017862D01*
X019577Y017835D01*
X019662Y017822D01*
X017244Y017822D01*
X016898Y017492D02*
X018080Y017496D01*
X018080Y017240D02*
X018074Y017237D01*
X017837Y017237D01*
X017768Y017178D01*
X017525Y017078D01*
X017625Y016985D02*
X017494Y016930D01*
X017393Y016830D01*
X017343Y016709D01*
X017334Y016719D01*
X017334Y017023D01*
X017220Y017137D01*
X017296Y017213D01*
X017762Y017215D01*
X017762Y017166D01*
X017742Y017146D01*
X017742Y016985D01*
X017625Y016985D01*
X017742Y017029D02*
X017328Y017029D01*
X017334Y016871D02*
X017434Y016871D01*
X017344Y016712D02*
X017340Y016712D01*
X016898Y016783D02*
X017843Y015740D01*
X017843Y015793D01*
X018747Y016697D01*
X019034Y016409D01*
X018747Y016697D02*
X018747Y016977D01*
X018749Y016984D01*
X018751Y017492D02*
X019147Y017492D01*
X019348Y017289D01*
X019348Y016894D01*
X019679Y017029D02*
X020075Y017029D01*
X020075Y016871D02*
X019706Y016871D01*
X019660Y016712D02*
X020075Y016712D01*
X020075Y016554D02*
X019472Y016554D01*
X019472Y016395D02*
X020075Y016395D01*
X020075Y016237D02*
X019472Y016237D01*
X019441Y016078D02*
X020075Y016078D01*
X020076Y015920D02*
X019472Y015920D01*
X020019Y015589D02*
X020076Y015532D01*
X020075Y017963D01*
X020064Y017952D01*
X019994Y017901D01*
X019917Y017862D01*
X019834Y017835D01*
X019749Y017822D01*
X020075Y017822D01*
X020075Y017663D02*
X019371Y017663D01*
X019384Y017650D02*
X019384Y017650D01*
X019528Y017505D02*
X020075Y017505D01*
X020075Y017346D02*
X019627Y017346D01*
X019628Y017344D02*
X019628Y017344D01*
X019585Y017447D02*
X019585Y017447D01*
X019628Y017188D02*
X020075Y017188D01*
X019749Y017822D02*
X019724Y017822D01*
X019687Y017822D02*
X019662Y017822D01*
X019687Y017980D02*
X019724Y017980D01*
X019724Y018139D02*
X019687Y018139D01*
X019687Y018297D02*
X019724Y018297D01*
X019687Y018390D02*
X019156Y018390D01*
X019156Y018415D01*
X019169Y018500D01*
X019196Y018583D01*
X019235Y018660D01*
X019286Y018730D01*
X019347Y018791D01*
X019417Y018842D01*
X019495Y018881D01*
X019577Y018908D01*
X019662Y018922D01*
X019687Y018922D01*
X019687Y018390D01*
X019687Y018456D02*
X019724Y018456D01*
X019724Y018614D02*
X019687Y018614D01*
X019687Y018773D02*
X019724Y018773D01*
X019329Y018773D02*
X019209Y018773D01*
X019209Y018931D02*
X020075Y018931D01*
X019706Y019512D02*
X018792Y019030D01*
X018793Y019762D01*
X018317Y019724D02*
X017274Y019724D01*
X017420Y019882D02*
X017451Y019882D01*
X017451Y020041D02*
X017420Y020041D01*
X017420Y020199D02*
X017451Y020199D01*
X017221Y020516D02*
X016573Y020516D01*
X016573Y020675D02*
X017090Y020675D01*
X016958Y020833D02*
X016492Y020833D01*
X016827Y020992D02*
X015575Y020992D01*
X015575Y021150D02*
X016688Y021150D01*
X016548Y021309D02*
X015576Y021309D01*
X015623Y021467D02*
X016408Y021467D01*
X015911Y021626D02*
X015781Y021626D01*
X015297Y021947D02*
X015294Y020472D01*
X016098Y020472D01*
X016479Y020098D02*
X016508Y020127D01*
X016508Y020116D01*
X016946Y020116D01*
X016946Y020079D01*
X016508Y020079D01*
X016508Y020068D01*
X016479Y020098D01*
X016573Y019724D02*
X016654Y019724D01*
X016573Y019565D02*
X018317Y019565D01*
X018392Y019407D02*
X016536Y019407D01*
X016946Y019724D02*
X016982Y019724D01*
X016982Y019882D02*
X016946Y019882D01*
X016946Y020041D02*
X016982Y020041D01*
X016982Y020199D02*
X016946Y020199D01*
X016946Y020358D02*
X016982Y020358D01*
X017606Y020992D02*
X018987Y020992D01*
X018867Y020906D02*
X018434Y020906D01*
X018317Y020789D01*
X018317Y020500D01*
X018285Y020532D01*
X017987Y020532D01*
X017313Y021346D01*
X017311Y021350D01*
X017288Y021377D01*
X017410Y021377D01*
X017620Y021463D01*
X017780Y021624D01*
X017867Y021833D01*
X017867Y022060D01*
X017780Y022270D01*
X017620Y022430D01*
X017410Y022517D01*
X017183Y022517D01*
X016974Y022430D01*
X016819Y022275D01*
X016780Y022370D01*
X016620Y022530D01*
X016410Y022617D01*
X016183Y022617D01*
X015974Y022530D01*
X015813Y022370D01*
X015774Y022275D01*
X015620Y022430D01*
X015410Y022517D01*
X015183Y022517D01*
X014974Y022430D01*
X014842Y022298D01*
X013602Y022484D01*
X013602Y022636D01*
X013484Y022753D01*
X012689Y022753D01*
X012572Y022636D01*
X012572Y021919D01*
X012689Y021802D01*
X013484Y021802D01*
X013600Y021918D01*
X014764Y021743D01*
X014813Y021624D01*
X014974Y021463D01*
X015016Y021446D01*
X015015Y020869D01*
X014995Y020869D01*
X014944Y020818D01*
X014911Y020836D01*
X014865Y020849D01*
X014644Y020849D01*
X014644Y020490D01*
X014607Y020490D01*
X014607Y020453D01*
X014644Y020453D01*
X014644Y020103D01*
X014636Y020103D01*
X014636Y019744D01*
X014600Y019744D01*
X014600Y020095D01*
X014607Y020095D01*
X014607Y020453D01*
X014229Y020453D01*
X014229Y020251D01*
X014241Y020206D01*
X014265Y020164D01*
X014298Y020131D01*
X014339Y020107D01*
X014367Y020100D01*
X014332Y020090D01*
X014291Y020067D01*
X014257Y020033D01*
X014234Y019992D01*
X014221Y019946D01*
X014221Y019744D01*
X014600Y019744D01*
X014600Y019707D01*
X014221Y019707D01*
X014221Y019505D01*
X014234Y019459D01*
X014247Y019436D01*
X014204Y019392D01*
X014204Y019330D01*
X014175Y019325D01*
X014064Y019436D01*
X013269Y019436D01*
X013152Y019319D01*
X013152Y018602D01*
X013269Y018485D01*
X013993Y018485D01*
X014205Y018379D01*
X014205Y018205D01*
X014323Y018088D01*
X014497Y018088D01*
X015196Y016577D01*
X015188Y016558D01*
X015188Y016476D01*
X015162Y016502D01*
X015121Y016525D01*
X015075Y016538D01*
X014617Y016538D01*
X014617Y016238D01*
X014617Y016238D01*
X015232Y016238D01*
X015232Y016311D01*
X015243Y016284D01*
X015344Y016183D01*
X015475Y016128D01*
X015618Y016128D01*
X015696Y016161D01*
X016042Y016087D01*
X016042Y016035D01*
X016089Y015988D01*
X016042Y015940D01*
X016042Y015680D01*
X015252Y015872D01*
X015252Y015940D01*
X015190Y016002D01*
X015196Y016007D01*
X015219Y016048D01*
X015232Y016094D01*
X015232Y016238D01*
X014617Y016238D01*
X014617Y016238D01*
X014617Y016538D01*
X014158Y016538D01*
X014112Y016525D01*
X014071Y016502D01*
X014038Y016468D01*
X014014Y016427D01*
X014002Y016381D01*
X014002Y016238D01*
X014617Y016238D01*
X014617Y016238D01*
X014617Y016058D01*
X014617Y016058D01*
X014617Y016238D01*
X014617Y016238D01*
X014002Y016238D01*
X014002Y016094D01*
X014014Y016048D01*
X014038Y016007D01*
X014043Y016002D01*
X013982Y015940D01*
X013982Y015537D01*
X012696Y015537D01*
X012147Y015537D01*
X012147Y024577D01*
X019118Y024577D01*
X018978Y024519D01*
X018750Y024291D01*
X018626Y023993D01*
X018626Y023670D01*
X018750Y023373D01*
X018978Y023145D01*
X019275Y023021D01*
X019598Y023021D01*
X019896Y023145D01*
X020073Y023322D01*
X020074Y019949D01*
X020029Y019995D01*
X019898Y020049D01*
X019931Y020082D01*
X019955Y020123D01*
X019967Y020168D01*
X019967Y020390D01*
X019609Y020390D01*
X019609Y020427D01*
X019967Y020427D01*
X019967Y020649D01*
X019955Y020695D01*
X019936Y020727D01*
X019987Y020778D01*
X019987Y021377D01*
X019870Y021494D01*
X019666Y021494D01*
X018745Y022815D01*
X018715Y022861D01*
X018711Y022864D01*
X018709Y022867D01*
X018662Y022897D01*
X018616Y022928D01*
X018612Y022929D01*
X018608Y022931D01*
X018554Y022941D01*
X013405Y024012D01*
X013349Y024148D01*
X013186Y024311D01*
X012973Y024399D01*
X012742Y024399D01*
X012529Y024311D01*
X012366Y024148D01*
X012277Y023935D01*
X012277Y023704D01*
X012366Y023491D01*
X012529Y023328D01*
X012742Y023239D01*
X012973Y023239D01*
X013186Y023328D01*
X013283Y023425D01*
X018319Y022377D01*
X019186Y021133D01*
X018867Y020906D01*
X019174Y021150D02*
X017475Y021150D01*
X017343Y021309D02*
X019064Y021309D01*
X018953Y021467D02*
X017623Y021467D01*
X017781Y021626D02*
X018843Y021626D01*
X018732Y021784D02*
X017846Y021784D01*
X017867Y021943D02*
X018622Y021943D01*
X018511Y022101D02*
X017850Y022101D01*
X017784Y022260D02*
X018401Y022260D01*
X018122Y022418D02*
X017631Y022418D01*
X017360Y022577D02*
X016507Y022577D01*
X016598Y022735D02*
X013503Y022735D01*
X013602Y022577D02*
X016087Y022577D01*
X015862Y022418D02*
X015631Y022418D01*
X015835Y022894D02*
X012147Y022894D01*
X012147Y023052D02*
X015073Y023052D01*
X014962Y022418D02*
X014039Y022418D01*
X014491Y021784D02*
X012147Y021784D01*
X012147Y021626D02*
X012728Y021626D01*
X012748Y021631D02*
X012702Y021619D01*
X012661Y021595D01*
X012628Y021562D01*
X012604Y021521D01*
X012592Y021475D01*
X012592Y021233D01*
X013029Y021233D01*
X013029Y021118D01*
X012592Y021118D01*
X012592Y020876D01*
X012604Y020830D01*
X012628Y020789D01*
X012661Y020756D01*
X012702Y020732D01*
X012748Y020720D01*
X013029Y020720D01*
X013029Y021118D01*
X013144Y021118D01*
X013144Y020720D01*
X013425Y020720D01*
X013471Y020732D01*
X013512Y020756D01*
X013546Y020789D01*
X013569Y020830D01*
X013582Y020876D01*
X013582Y021118D01*
X013144Y021118D01*
X013144Y021233D01*
X013029Y021233D01*
X013029Y021631D01*
X012748Y021631D01*
X012592Y021467D02*
X012147Y021467D01*
X012147Y021309D02*
X012592Y021309D01*
X012592Y020992D02*
X012147Y020992D01*
X012147Y021150D02*
X013029Y021150D01*
X013144Y021150D02*
X015015Y021150D01*
X015015Y020992D02*
X013582Y020992D01*
X013570Y020833D02*
X014333Y020833D01*
X014339Y020836D02*
X014298Y020813D01*
X014265Y020779D01*
X014241Y020738D01*
X014229Y020692D01*
X014229Y020490D01*
X014607Y020490D01*
X014607Y020849D01*
X014385Y020849D01*
X014339Y020836D01*
X014229Y020675D02*
X012147Y020675D01*
X012147Y020833D02*
X012603Y020833D01*
X013029Y020833D02*
X013144Y020833D01*
X013144Y020992D02*
X013029Y020992D01*
X013144Y021233D02*
X013582Y021233D01*
X013582Y021475D01*
X013569Y021521D01*
X013546Y021562D01*
X013512Y021595D01*
X013471Y021619D01*
X013425Y021631D01*
X013144Y021631D01*
X013144Y021233D01*
X013144Y021309D02*
X013029Y021309D01*
X013029Y021467D02*
X013144Y021467D01*
X013144Y021626D02*
X013029Y021626D01*
X013445Y021626D02*
X014813Y021626D01*
X014970Y021467D02*
X013582Y021467D01*
X013582Y021309D02*
X015016Y021309D01*
X014959Y020833D02*
X014917Y020833D01*
X014644Y020833D02*
X014607Y020833D01*
X014607Y020675D02*
X014644Y020675D01*
X014644Y020516D02*
X014607Y020516D01*
X014607Y020358D02*
X014644Y020358D01*
X014644Y020199D02*
X014607Y020199D01*
X014600Y020041D02*
X014636Y020041D01*
X014636Y019882D02*
X014600Y019882D01*
X014600Y019724D02*
X014151Y019724D01*
X014149Y019718D02*
X014162Y019764D01*
X014162Y020005D01*
X013724Y020005D01*
X013724Y019607D01*
X014005Y019607D01*
X014051Y019619D01*
X014092Y019643D01*
X014126Y019677D01*
X014149Y019718D01*
X014162Y019882D02*
X014221Y019882D01*
X014265Y020041D02*
X013724Y020041D01*
X013724Y020005D02*
X013724Y020121D01*
X013609Y020121D01*
X013609Y020518D01*
X013328Y020518D01*
X013282Y020506D01*
X013241Y020482D01*
X013208Y020449D01*
X013184Y020408D01*
X013172Y020362D01*
X013172Y020121D01*
X013609Y020121D01*
X013609Y020005D01*
X013724Y020005D01*
X013609Y020005D02*
X013609Y019607D01*
X013328Y019607D01*
X013282Y019619D01*
X013241Y019643D01*
X013208Y019677D01*
X013184Y019718D01*
X013172Y019764D01*
X013172Y020005D01*
X013609Y020005D01*
X013609Y020041D02*
X012147Y020041D01*
X012147Y020199D02*
X013172Y020199D01*
X013172Y020358D02*
X012147Y020358D01*
X012147Y020516D02*
X013320Y020516D01*
X013609Y020516D02*
X013724Y020516D01*
X013724Y020518D02*
X014005Y020518D01*
X014051Y020506D01*
X014092Y020482D01*
X014126Y020449D01*
X014149Y020408D01*
X014162Y020362D01*
X014162Y020121D01*
X013724Y020121D01*
X013724Y020518D01*
X013724Y020358D02*
X013609Y020358D01*
X013609Y020199D02*
X013724Y020199D01*
X013724Y019882D02*
X013609Y019882D01*
X013609Y019724D02*
X013724Y019724D01*
X014094Y019407D02*
X014218Y019407D01*
X014221Y019565D02*
X012147Y019565D01*
X012147Y019407D02*
X013239Y019407D01*
X013152Y019248D02*
X012147Y019248D01*
X012147Y019090D02*
X013152Y019090D01*
X013152Y018931D02*
X012147Y018931D01*
X012147Y018773D02*
X013152Y018773D01*
X013152Y018614D02*
X012147Y018614D01*
X012147Y018456D02*
X014052Y018456D01*
X014205Y018297D02*
X012147Y018297D01*
X012147Y018139D02*
X014272Y018139D01*
X014547Y017980D02*
X012147Y017980D01*
X012147Y017822D02*
X014620Y017822D01*
X014694Y017663D02*
X012147Y017663D01*
X012147Y017505D02*
X014767Y017505D01*
X014840Y017346D02*
X012147Y017346D01*
X012147Y017188D02*
X014914Y017188D01*
X014987Y017029D02*
X012147Y017029D01*
X012147Y016871D02*
X015060Y016871D01*
X015134Y016712D02*
X012147Y016712D01*
X012147Y016554D02*
X015188Y016554D01*
X015232Y016237D02*
X015290Y016237D01*
X015227Y016078D02*
X016042Y016078D01*
X016042Y015920D02*
X015252Y015920D01*
X015557Y016477D02*
X015547Y016487D01*
X014622Y018485D01*
X013667Y018960D01*
X014620Y019113D01*
X015289Y019113D02*
X015287Y019726D01*
X016098Y019724D01*
X015706Y019248D02*
X017726Y019248D01*
X017726Y019090D02*
X015706Y019090D01*
X015706Y018931D02*
X017726Y018931D01*
X017726Y019011D02*
X017726Y018809D01*
X017739Y018763D01*
X017762Y018722D01*
X017796Y018689D01*
X017837Y018665D01*
X017883Y018653D01*
X018105Y018653D01*
X018105Y019011D01*
X017726Y019011D01*
X017736Y018773D02*
X015663Y018773D01*
X015688Y018614D02*
X019212Y018614D01*
X019162Y018456D02*
X015688Y018456D01*
X015688Y018466D02*
X015310Y018466D01*
X015310Y018108D01*
X015532Y018108D01*
X015577Y018120D01*
X015618Y018144D01*
X015652Y018177D01*
X015676Y018218D01*
X015688Y018264D01*
X015688Y018466D01*
X015688Y018297D02*
X019161Y018297D01*
X019207Y018139D02*
X015610Y018139D01*
X015310Y018139D02*
X015273Y018139D01*
X015273Y018297D02*
X015310Y018297D01*
X015310Y018456D02*
X015273Y018456D01*
X015164Y017980D02*
X019319Y017980D01*
X018417Y017663D02*
X018412Y017663D01*
X017762Y017188D02*
X017270Y017188D01*
X016898Y017492D02*
X016233Y017495D01*
X015796Y017505D02*
X015384Y017505D01*
X015311Y017663D02*
X015796Y017663D01*
X015883Y017822D02*
X015237Y017822D01*
X015457Y017346D02*
X015796Y017346D01*
X015863Y017188D02*
X015531Y017188D01*
X015604Y017029D02*
X015799Y017029D01*
X015796Y016871D02*
X015677Y016871D01*
X015557Y016477D02*
X016677Y016238D01*
X016233Y016786D01*
X016042Y015761D02*
X015707Y015761D01*
X015254Y014957D02*
X015511Y014802D01*
X015544Y014723D01*
X015568Y014699D01*
X015568Y013507D01*
X015491Y013507D01*
X015373Y013390D01*
X015373Y012831D01*
X015487Y012718D01*
X015229Y008247D01*
X014929Y008247D01*
X014896Y014021D01*
X014918Y014044D01*
X014973Y014175D01*
X014973Y014318D01*
X014932Y014418D01*
X015134Y014418D01*
X015252Y014535D01*
X015252Y014940D01*
X015235Y014957D01*
X015254Y014957D01*
X015252Y014810D02*
X015497Y014810D01*
X015568Y014652D02*
X015252Y014652D01*
X015210Y014493D02*
X015568Y014493D01*
X015568Y014335D02*
X014966Y014335D01*
X014973Y014176D02*
X015568Y014176D01*
X015568Y014018D02*
X014896Y014018D01*
X014897Y013859D02*
X015568Y013859D01*
X015568Y013701D02*
X014898Y013701D01*
X014899Y013542D02*
X015568Y013542D01*
X015373Y013384D02*
X014900Y013384D01*
X014900Y013225D02*
X015373Y013225D01*
X015373Y013067D02*
X014901Y013067D01*
X014902Y012908D02*
X015373Y012908D01*
X015455Y012750D02*
X014903Y012750D01*
X014904Y012591D02*
X015480Y012591D01*
X015470Y012433D02*
X014905Y012433D01*
X014906Y012274D02*
X015461Y012274D01*
X015452Y012116D02*
X014907Y012116D01*
X014908Y011957D02*
X015443Y011957D01*
X015434Y011799D02*
X014909Y011799D01*
X014910Y011640D02*
X015425Y011640D01*
X015415Y011482D02*
X014911Y011482D01*
X014912Y011323D02*
X015406Y011323D01*
X015397Y011165D02*
X014912Y011165D01*
X014913Y011006D02*
X015388Y011006D01*
X015379Y010848D02*
X014914Y010848D01*
X014915Y010689D02*
X015370Y010689D01*
X015361Y010531D02*
X014916Y010531D01*
X014917Y010372D02*
X015351Y010372D01*
X015342Y010214D02*
X014918Y010214D01*
X014919Y010055D02*
X015333Y010055D01*
X015324Y009897D02*
X014920Y009897D01*
X014921Y009738D02*
X015315Y009738D01*
X015306Y009580D02*
X014922Y009580D01*
X014923Y009421D02*
X015297Y009421D01*
X015287Y009263D02*
X014924Y009263D01*
X014924Y009104D02*
X015278Y009104D01*
X015269Y008946D02*
X014925Y008946D01*
X014926Y008787D02*
X015260Y008787D01*
X015251Y008629D02*
X014927Y008629D01*
X014928Y008470D02*
X015242Y008470D01*
X015232Y008312D02*
X014929Y008312D01*
X014369Y008312D02*
X012147Y008312D01*
X012147Y008247D02*
X014369Y008247D01*
X014336Y014018D01*
X012147Y014018D01*
X012147Y014176D02*
X014256Y014176D01*
X014256Y014175D02*
X014311Y014044D01*
X014336Y014018D01*
X014337Y013859D02*
X012147Y013859D01*
X012147Y013701D02*
X014338Y013701D01*
X014339Y013542D02*
X012147Y013542D01*
X012147Y013384D02*
X014340Y013384D01*
X014340Y013225D02*
X012147Y013225D01*
X012147Y013067D02*
X014341Y013067D01*
X014342Y012908D02*
X012147Y012908D01*
X012147Y012750D02*
X014343Y012750D01*
X014344Y012591D02*
X012147Y012591D01*
X012147Y012433D02*
X014345Y012433D01*
X014346Y012274D02*
X012147Y012274D01*
X012147Y012116D02*
X014347Y012116D01*
X014348Y011957D02*
X012147Y011957D01*
X012147Y011799D02*
X014349Y011799D01*
X014350Y011640D02*
X012147Y011640D01*
X012147Y011482D02*
X014351Y011482D01*
X014352Y011323D02*
X012147Y011323D01*
X012147Y011165D02*
X014352Y011165D01*
X014353Y011006D02*
X012147Y011006D01*
X012147Y010848D02*
X014354Y010848D01*
X014355Y010689D02*
X012147Y010689D01*
X012147Y010531D02*
X014356Y010531D01*
X014357Y010372D02*
X012147Y010372D01*
X012147Y010214D02*
X014358Y010214D01*
X014359Y010055D02*
X012147Y010055D01*
X012147Y009897D02*
X014360Y009897D01*
X014361Y009738D02*
X012147Y009738D01*
X012147Y009580D02*
X014362Y009580D01*
X014363Y009421D02*
X012147Y009421D01*
X012147Y009263D02*
X014364Y009263D01*
X014364Y009104D02*
X012147Y009104D01*
X012147Y008946D02*
X014365Y008946D01*
X014366Y008787D02*
X012147Y008787D01*
X012147Y008629D02*
X014367Y008629D01*
X014368Y008470D02*
X012147Y008470D01*
X012147Y008247D02*
X012147Y014937D01*
X012637Y014937D01*
X012637Y014937D01*
X012696Y014937D01*
X012756Y014937D01*
X012756Y014937D01*
X013982Y014937D01*
X013982Y014535D01*
X014099Y014418D01*
X014297Y014418D01*
X014256Y014318D01*
X014256Y014175D01*
X014263Y014335D02*
X012147Y014335D01*
X012147Y014493D02*
X014023Y014493D01*
X013982Y014652D02*
X012147Y014652D01*
X012147Y014810D02*
X013982Y014810D01*
X014617Y014738D02*
X014615Y014247D01*
X014654Y007488D01*
X014111Y007487D01*
X014654Y007488D02*
X014664Y007073D01*
X015790Y008247D02*
X016048Y012714D01*
X016089Y012714D01*
X016125Y012749D01*
X016160Y012714D01*
X016759Y012714D01*
X016875Y012830D01*
X016991Y012714D01*
X017589Y012714D01*
X017625Y012749D01*
X017660Y012714D01*
X018259Y012714D01*
X018376Y012831D01*
X018376Y013390D01*
X018275Y013491D01*
X018309Y013525D01*
X018342Y013506D01*
X018388Y013494D01*
X018609Y013494D01*
X018609Y013852D01*
X018646Y013852D01*
X018646Y013494D01*
X018868Y013494D01*
X018914Y013506D01*
X018955Y013530D01*
X018988Y013563D01*
X019012Y013604D01*
X019024Y013650D01*
X019024Y013852D01*
X018646Y013852D01*
X018646Y013889D01*
X018609Y013889D01*
X018609Y014248D01*
X018609Y014430D01*
X018646Y014430D01*
X018646Y014466D01*
X019024Y014466D01*
X019024Y014669D01*
X019012Y014714D01*
X019001Y014733D01*
X019044Y014776D01*
X019044Y014795D01*
X019205Y014802D01*
X019213Y014783D01*
X019373Y014623D01*
X019583Y014536D01*
X019809Y014536D01*
X020019Y014623D01*
X020076Y014680D01*
X020076Y014363D01*
X020054Y014385D01*
X019984Y014436D01*
X019907Y014475D01*
X019825Y014502D01*
X019739Y014516D01*
X019714Y014516D01*
X019714Y013984D01*
X019678Y013984D01*
X019678Y014516D01*
X019653Y014516D01*
X019567Y014502D01*
X019485Y014475D01*
X019408Y014436D01*
X019338Y014385D01*
X019276Y014324D01*
X019226Y014254D01*
X019186Y014177D01*
X019159Y014095D01*
X019146Y014009D01*
X019146Y013984D01*
X019678Y013984D01*
X019678Y013947D01*
X019714Y013947D01*
X019714Y013416D01*
X019739Y013416D01*
X019825Y013429D01*
X019907Y013456D01*
X019984Y013495D01*
X020054Y013546D01*
X020076Y013568D01*
X020078Y008247D01*
X015790Y008247D01*
X015793Y008312D02*
X020078Y008312D01*
X020078Y008470D02*
X015803Y008470D01*
X015812Y008629D02*
X020078Y008629D01*
X020078Y008787D02*
X015821Y008787D01*
X015830Y008946D02*
X020078Y008946D01*
X020078Y009104D02*
X015839Y009104D01*
X015848Y009263D02*
X020078Y009263D01*
X020078Y009421D02*
X015857Y009421D01*
X015867Y009580D02*
X020078Y009580D01*
X020078Y009738D02*
X015876Y009738D01*
X015885Y009897D02*
X020078Y009897D01*
X020077Y010055D02*
X015894Y010055D01*
X015903Y010214D02*
X020077Y010214D01*
X020077Y010372D02*
X015912Y010372D01*
X015922Y010531D02*
X020077Y010531D01*
X020077Y010689D02*
X015931Y010689D01*
X015940Y010848D02*
X020077Y010848D01*
X020077Y011006D02*
X015949Y011006D01*
X015958Y011165D02*
X020077Y011165D01*
X020077Y011323D02*
X015967Y011323D01*
X015976Y011482D02*
X020077Y011482D01*
X020077Y011640D02*
X015986Y011640D01*
X015995Y011799D02*
X020077Y011799D01*
X020077Y011957D02*
X016004Y011957D01*
X016013Y012116D02*
X020077Y012116D01*
X020077Y012274D02*
X016022Y012274D01*
X016031Y012433D02*
X020077Y012433D01*
X020077Y012591D02*
X016040Y012591D01*
X016459Y013111D02*
X017290Y013111D01*
X017625Y013472D02*
X017589Y013507D01*
X016991Y013507D01*
X016875Y013392D01*
X016759Y013507D01*
X016160Y013507D01*
X016128Y013475D01*
X016128Y014449D01*
X016159Y014418D01*
X016260Y014418D01*
X016260Y013973D01*
X016377Y013856D01*
X016976Y013856D01*
X017027Y013907D01*
X017060Y013888D01*
X017106Y013876D01*
X017328Y013876D01*
X017328Y014234D01*
X017365Y014234D01*
X017365Y013876D01*
X017542Y013876D01*
X017542Y013591D01*
X017643Y013490D01*
X017625Y013472D01*
X017591Y013542D02*
X016128Y013542D01*
X016128Y013701D02*
X017542Y013701D01*
X017542Y013859D02*
X016980Y013859D01*
X017328Y014018D02*
X017365Y014018D01*
X017365Y014176D02*
X017328Y014176D01*
X017328Y014271D02*
X017328Y014629D01*
X017312Y014629D01*
X017312Y014865D01*
X017542Y014832D01*
X017542Y014776D01*
X017566Y014752D01*
X017541Y014728D01*
X017541Y014629D01*
X017365Y014629D01*
X017365Y014271D01*
X017328Y014271D01*
X017328Y014335D02*
X017365Y014335D01*
X017365Y014493D02*
X017328Y014493D01*
X017312Y014652D02*
X017541Y014652D01*
X017542Y014810D02*
X017312Y014810D01*
X016677Y014738D02*
X016677Y014253D01*
X016260Y014176D02*
X016128Y014176D01*
X016128Y014018D02*
X016260Y014018D01*
X016374Y013859D02*
X016128Y013859D01*
X016128Y014335D02*
X016260Y014335D01*
X016677Y015738D02*
X017843Y015740D01*
X017959Y015056D02*
X017958Y014448D01*
X017959Y013871D01*
X017959Y013111D01*
X018376Y013067D02*
X020076Y013067D01*
X020076Y013225D02*
X018376Y013225D01*
X018376Y013384D02*
X020076Y013384D01*
X020076Y013542D02*
X020049Y013542D01*
X019714Y013542D02*
X019678Y013542D01*
X019678Y013416D02*
X019678Y013947D01*
X019146Y013947D01*
X019146Y013922D01*
X019159Y013837D01*
X019186Y013755D01*
X019226Y013677D01*
X019276Y013607D01*
X019338Y013546D01*
X019408Y013495D01*
X019485Y013456D01*
X019567Y013429D01*
X019653Y013416D01*
X019678Y013416D01*
X019678Y013701D02*
X019714Y013701D01*
X019714Y013859D02*
X019678Y013859D01*
X019678Y014018D02*
X019714Y014018D01*
X019714Y014176D02*
X019678Y014176D01*
X019678Y014335D02*
X019714Y014335D01*
X019714Y014493D02*
X019678Y014493D01*
X019539Y014493D02*
X019024Y014493D01*
X019024Y014430D02*
X018646Y014430D01*
X018646Y014071D01*
X018646Y013889D01*
X019024Y013889D01*
X019024Y014091D01*
X019012Y014137D01*
X018999Y014160D01*
X019012Y014182D01*
X019024Y014227D01*
X019024Y014430D01*
X019024Y014335D02*
X019287Y014335D01*
X019186Y014176D02*
X019008Y014176D01*
X019024Y014018D02*
X019147Y014018D01*
X019156Y013859D02*
X018646Y013859D01*
X018646Y013701D02*
X018609Y013701D01*
X018609Y013542D02*
X018646Y013542D01*
X018967Y013542D02*
X019343Y013542D01*
X019214Y013701D02*
X019024Y013701D01*
X018646Y014018D02*
X018609Y014018D01*
X018646Y014071D02*
X018646Y014071D01*
X018646Y014176D02*
X018609Y014176D01*
X018609Y014248D02*
X018609Y014248D01*
X018609Y014335D02*
X018646Y014335D01*
X019024Y014652D02*
X019344Y014652D01*
X019853Y014493D02*
X020076Y014493D01*
X020076Y014652D02*
X020048Y014652D01*
X019696Y015106D02*
X018628Y015056D01*
X018376Y012908D02*
X020077Y012908D01*
X020077Y012750D02*
X018295Y012750D01*
X016955Y012750D02*
X016795Y012750D01*
X013982Y015603D02*
X012147Y015603D01*
X012147Y015761D02*
X013982Y015761D01*
X013982Y015920D02*
X012147Y015920D01*
X012147Y016078D02*
X014006Y016078D01*
X014002Y016237D02*
X012147Y016237D01*
X012147Y016395D02*
X014005Y016395D01*
X014617Y016395D02*
X014617Y016395D01*
X014617Y016237D02*
X014617Y016237D01*
X014617Y016078D02*
X014617Y016078D01*
X012782Y014578D02*
X012735Y014318D01*
X013182Y019724D02*
X012147Y019724D01*
X012147Y019882D02*
X013172Y019882D01*
X014014Y020516D02*
X014229Y020516D01*
X014229Y020358D02*
X014162Y020358D01*
X014162Y020199D02*
X014244Y020199D01*
X015629Y020833D02*
X015704Y020833D01*
X015297Y021947D02*
X013087Y022278D01*
X012572Y022260D02*
X012147Y022260D01*
X012147Y022418D02*
X012572Y022418D01*
X012572Y022577D02*
X012147Y022577D01*
X012147Y022735D02*
X012671Y022735D01*
X012572Y022101D02*
X012147Y022101D01*
X012147Y021943D02*
X012572Y021943D01*
X012147Y023211D02*
X014311Y023211D01*
X014209Y023845D02*
X017337Y023845D01*
X017337Y023838D02*
X017878Y023838D01*
X017878Y023801D01*
X017337Y023801D01*
X017337Y023775D01*
X017350Y023688D01*
X017378Y023604D01*
X017418Y023526D01*
X017470Y023455D01*
X017532Y023392D01*
X017603Y023340D01*
X017682Y023300D01*
X017766Y023273D01*
X017853Y023259D01*
X017878Y023259D01*
X017878Y023801D01*
X017915Y023801D01*
X017915Y023259D01*
X017941Y023259D01*
X018028Y023273D01*
X018112Y023300D01*
X018190Y023340D01*
X018261Y023392D01*
X018324Y023455D01*
X018376Y023526D01*
X018416Y023604D01*
X018443Y023688D01*
X018457Y023775D01*
X018457Y023801D01*
X017915Y023801D01*
X017915Y023838D01*
X017878Y023838D01*
X017878Y024379D01*
X017853Y024379D01*
X017766Y024366D01*
X017682Y024338D01*
X017603Y024298D01*
X017532Y024247D01*
X017470Y024184D01*
X017418Y024113D01*
X017378Y024034D01*
X017350Y023951D01*
X017337Y023863D01*
X017337Y023838D01*
X017351Y023686D02*
X014971Y023686D01*
X015734Y023528D02*
X017417Y023528D01*
X017564Y023369D02*
X016496Y023369D01*
X017258Y023211D02*
X018912Y023211D01*
X018753Y023369D02*
X018230Y023369D01*
X018377Y023528D02*
X018686Y023528D01*
X018626Y023686D02*
X018442Y023686D01*
X018457Y023838D02*
X018457Y023863D01*
X018443Y023951D01*
X018416Y024034D01*
X018376Y024113D01*
X018324Y024184D01*
X018261Y024247D01*
X018190Y024298D01*
X018112Y024338D01*
X018028Y024366D01*
X017941Y024379D01*
X017915Y024379D01*
X017915Y023838D01*
X018457Y023838D01*
X018457Y023845D02*
X018626Y023845D01*
X018631Y024003D02*
X018426Y024003D01*
X018340Y024162D02*
X018696Y024162D01*
X018779Y024320D02*
X018147Y024320D01*
X017915Y024320D02*
X017878Y024320D01*
X017878Y024162D02*
X017915Y024162D01*
X017915Y024003D02*
X017878Y024003D01*
X017878Y023845D02*
X017915Y023845D01*
X017915Y023686D02*
X017878Y023686D01*
X017878Y023528D02*
X017915Y023528D01*
X017915Y023369D02*
X017878Y023369D01*
X018020Y023052D02*
X019201Y023052D01*
X019672Y023052D02*
X020073Y023052D01*
X020073Y022894D02*
X018667Y022894D01*
X018801Y022735D02*
X020073Y022735D01*
X020073Y022577D02*
X018911Y022577D01*
X019022Y022418D02*
X020073Y022418D01*
X020073Y022260D02*
X019132Y022260D01*
X019243Y022101D02*
X020074Y022101D01*
X020074Y021943D02*
X019353Y021943D01*
X019464Y021784D02*
X020074Y021784D01*
X020074Y021626D02*
X019574Y021626D01*
X019897Y021467D02*
X020074Y021467D01*
X020074Y021309D02*
X019987Y021309D01*
X019987Y021150D02*
X020074Y021150D01*
X020074Y020992D02*
X019987Y020992D01*
X019987Y020833D02*
X020074Y020833D01*
X020074Y020675D02*
X019960Y020675D01*
X019967Y020516D02*
X020074Y020516D01*
X020074Y020358D02*
X019967Y020358D01*
X019967Y020199D02*
X020074Y020199D01*
X020074Y020041D02*
X019918Y020041D01*
X019590Y021078D02*
X018793Y020510D01*
X018317Y020516D02*
X018301Y020516D01*
X018317Y020675D02*
X017869Y020675D01*
X017738Y020833D02*
X018361Y020833D01*
X016962Y022418D02*
X016731Y022418D01*
X017368Y024003D02*
X013447Y024003D01*
X013335Y024162D02*
X017453Y024162D01*
X017646Y024320D02*
X013164Y024320D01*
X012551Y024320D02*
X012147Y024320D01*
X012147Y024162D02*
X012379Y024162D01*
X012306Y024003D02*
X012147Y024003D01*
X012147Y023845D02*
X012277Y023845D01*
X012285Y023686D02*
X012147Y023686D01*
X012147Y023528D02*
X012350Y023528D01*
X012487Y023369D02*
X012147Y023369D01*
X013227Y023369D02*
X013549Y023369D01*
X012147Y024479D02*
X018938Y024479D01*
X019962Y023211D02*
X020073Y023211D01*
X018141Y019248D02*
X018105Y019248D01*
X018105Y019090D02*
X018141Y019090D01*
X018141Y018931D02*
X018105Y018931D01*
X018105Y018773D02*
X018141Y018773D01*
X006383Y015123D02*
X006383Y013728D01*
X006260Y013868D02*
X006351Y014342D01*
X006361Y014232D02*
X006292Y014210D01*
X005839Y014133D01*
X005620Y014066D01*
X005700Y014046D02*
X006001Y014106D01*
X005989Y014100D02*
X005845Y013924D01*
X005700Y014046D01*
X005710Y014022D02*
X006260Y013868D01*
X006292Y014210D02*
X005710Y014022D01*
X006374Y014884D02*
X006390Y014997D01*
D28*
X014615Y014247D03*
X015848Y014926D03*
X015547Y016487D03*
X017697Y016627D03*
X019348Y016894D03*
D29*
X019076Y016409D02*
X019034Y016409D01*
X018407Y016767D02*
X018407Y017177D01*
X018749Y017240D01*
X018407Y016767D02*
X017697Y016627D01*
D30*
X018751Y017492D02*
X018749Y017496D01*
X015848Y013111D02*
X015790Y013111D01*
X006392Y013803D02*
X006374Y013890D01*
X006060Y013966D01*
X006159Y013931D01*
X006246Y014001D01*
X006223Y014071D01*
X006100Y013890D01*
X006141Y014077D01*
X006310Y014164D01*
X006327Y013943D01*
X006380Y014391D01*
X006368Y013931D01*
X006380Y014269D01*
X006001Y014106D01*
X006361Y014232D01*
X006362Y014793D01*
X006293Y015102D01*
X006293Y015148D02*
X006298Y014304D01*
X006351Y014342D02*
X006351Y014936D01*
X006374Y014884D02*
X006378Y014884D01*
X006378Y014342D01*
X006351Y014342D01*
X006347Y014350D02*
X006374Y014350D01*
X006374Y014884D01*
X006386Y014869D02*
X006390Y014997D01*
X006392Y015038D01*
X006327Y015038D01*
X006081Y014762D02*
X005855Y014824D01*
X005841Y014819D02*
X005865Y014705D01*
X005913Y014729D01*
X006080Y014514D01*
X005847Y014472D01*
X004861Y014648D01*
X005841Y014819D02*
X006080Y014741D01*
X005989Y014616D01*
X006058Y014523D02*
X006088Y014523D01*
X006088Y014739D01*
X006081Y014762D01*
D31*
X006387Y014972D02*
X006366Y015009D01*
X006340Y015029D01*
X006320Y015053D01*
X006283Y015073D01*
X006249Y015099D01*
X006218Y015108D01*
X006190Y015123D01*
X006148Y015127D01*
X005956Y015179D01*
X005924Y015193D01*
X005908Y015193D01*
X005882Y015200D01*
X005842Y015195D01*
X005836Y015196D01*
X005821Y015193D01*
X004171Y015193D01*
X004171Y015768D01*
X004791Y015768D01*
X004791Y016318D01*
X004931Y016318D01*
X004931Y016458D01*
X006031Y016458D01*
X006031Y016860D01*
X006019Y016903D01*
X005997Y016942D01*
X005965Y016974D01*
X005926Y016996D01*
X005883Y017008D01*
X004931Y017008D01*
X004931Y016458D01*
X004791Y016458D01*
X004791Y017008D01*
X004131Y017008D01*
X004122Y017029D01*
X004032Y017119D01*
X004008Y017129D01*
X004012Y023155D01*
X004063Y023104D01*
X004405Y022962D01*
X004775Y022962D01*
X005117Y023104D01*
X005378Y023366D01*
X005520Y023708D01*
X005520Y024078D01*
X005378Y024420D01*
X005341Y024457D01*
X009832Y024457D01*
X009832Y015603D01*
X009709Y015603D01*
X009709Y015265D01*
X009653Y015265D01*
X009653Y015603D01*
X009442Y015603D01*
X009399Y015592D01*
X009360Y015570D01*
X009328Y015538D01*
X009306Y015499D01*
X009294Y015456D01*
X009294Y015265D01*
X009653Y015265D01*
X009653Y015208D01*
X009294Y015208D01*
X009294Y015051D01*
X009283Y015046D01*
X007020Y015047D01*
X007001Y015054D01*
X006559Y015054D01*
X006442Y015006D01*
X006396Y014960D01*
X006387Y014972D01*
X006321Y015052D02*
X006554Y015052D01*
X007007Y015052D02*
X009294Y015052D01*
X009294Y015191D02*
X005929Y015191D01*
X005883Y015768D02*
X005926Y015779D01*
X005965Y015802D01*
X005997Y015833D01*
X006019Y015872D01*
X006031Y015915D01*
X006031Y016318D01*
X004931Y016318D01*
X004931Y015768D01*
X005883Y015768D01*
X006022Y015883D02*
X009832Y015883D01*
X009832Y015745D02*
X004171Y015745D01*
X004171Y015606D02*
X009832Y015606D01*
X009709Y015468D02*
X009653Y015468D01*
X009653Y015329D02*
X009709Y015329D01*
X009294Y015329D02*
X004171Y015329D01*
X004171Y015468D02*
X009298Y015468D01*
X009832Y016022D02*
X006031Y016022D01*
X006031Y016160D02*
X009832Y016160D01*
X009832Y016299D02*
X006031Y016299D01*
X006031Y016576D02*
X009832Y016576D01*
X009832Y016714D02*
X006031Y016714D01*
X006031Y016853D02*
X009832Y016853D01*
X009832Y016991D02*
X005935Y016991D01*
X004931Y016991D02*
X004791Y016991D01*
X004791Y016853D02*
X004931Y016853D01*
X004931Y016714D02*
X004791Y016714D01*
X004791Y016576D02*
X004931Y016576D01*
X004931Y016437D02*
X009832Y016437D01*
X009832Y017130D02*
X004008Y017130D01*
X004008Y017268D02*
X009832Y017268D01*
X009832Y017407D02*
X004008Y017407D01*
X004008Y017545D02*
X009832Y017545D01*
X009832Y017684D02*
X004008Y017684D01*
X004008Y017822D02*
X009832Y017822D01*
X009832Y017961D02*
X004008Y017961D01*
X004009Y018099D02*
X009832Y018099D01*
X009832Y018238D02*
X004009Y018238D01*
X004009Y018376D02*
X009832Y018376D01*
X009832Y018515D02*
X004009Y018515D01*
X004009Y018653D02*
X009832Y018653D01*
X009832Y018792D02*
X004009Y018792D01*
X004009Y018930D02*
X009832Y018930D01*
X009832Y019069D02*
X004009Y019069D01*
X004009Y019207D02*
X009832Y019207D01*
X009832Y019346D02*
X004009Y019346D01*
X004009Y019484D02*
X009832Y019484D01*
X009832Y019623D02*
X004009Y019623D01*
X004010Y019761D02*
X009832Y019761D01*
X009832Y019900D02*
X004010Y019900D01*
X004010Y020038D02*
X009832Y020038D01*
X009832Y020177D02*
X004010Y020177D01*
X004010Y020315D02*
X009832Y020315D01*
X009832Y020454D02*
X004010Y020454D01*
X004010Y020592D02*
X009832Y020592D01*
X009832Y020731D02*
X004010Y020731D01*
X004010Y020869D02*
X009832Y020869D01*
X009832Y021008D02*
X004010Y021008D01*
X004010Y021146D02*
X009832Y021146D01*
X009832Y021285D02*
X004010Y021285D01*
X004011Y021423D02*
X009832Y021423D01*
X009832Y021562D02*
X004011Y021562D01*
X004011Y021700D02*
X009832Y021700D01*
X009832Y021839D02*
X004011Y021839D01*
X004011Y021977D02*
X009832Y021977D01*
X009832Y022116D02*
X004011Y022116D01*
X004011Y022254D02*
X009832Y022254D01*
X009832Y022393D02*
X004011Y022393D01*
X004011Y022531D02*
X009832Y022531D01*
X009832Y022670D02*
X004011Y022670D01*
X004011Y022808D02*
X009832Y022808D01*
X009832Y022947D02*
X004012Y022947D01*
X004012Y023085D02*
X004108Y023085D01*
X005071Y023085D02*
X009832Y023085D01*
X009832Y023224D02*
X005236Y023224D01*
X005375Y023362D02*
X009832Y023362D01*
X009832Y023501D02*
X005434Y023501D01*
X005492Y023639D02*
X009832Y023639D01*
X009832Y023778D02*
X005520Y023778D01*
X005520Y023916D02*
X009832Y023916D01*
X009832Y024055D02*
X005520Y024055D01*
X005472Y024193D02*
X009832Y024193D01*
X009832Y024332D02*
X005415Y024332D01*
X004931Y016299D02*
X004791Y016299D01*
X004791Y016160D02*
X004931Y016160D01*
X004931Y016022D02*
X004791Y016022D01*
X004791Y015883D02*
X004931Y015883D01*
X005681Y014103D02*
X004171Y014103D01*
X004171Y013528D01*
X004791Y013528D01*
X004791Y012978D01*
X004931Y012978D01*
X006031Y012978D01*
X006031Y013380D01*
X006019Y013423D01*
X005997Y013462D01*
X005965Y013494D01*
X005926Y013516D01*
X005883Y013528D01*
X004931Y013528D01*
X004931Y012978D01*
X004931Y012838D01*
X006031Y012838D01*
X006031Y012435D01*
X006019Y012392D01*
X005997Y012353D01*
X005965Y012322D01*
X005926Y012299D01*
X005883Y012288D01*
X004931Y012288D01*
X004931Y012838D01*
X004791Y012838D01*
X004791Y012288D01*
X004131Y012288D01*
X004122Y012266D01*
X004032Y012176D01*
X004005Y012165D01*
X004001Y005261D01*
X004026Y005286D01*
X004368Y005428D01*
X004738Y005428D01*
X005080Y005286D01*
X005341Y005025D01*
X005483Y004683D01*
X005483Y004313D01*
X005341Y003971D01*
X005249Y003878D01*
X009832Y003876D01*
X009832Y014059D01*
X009396Y014058D01*
X009279Y014106D01*
X007238Y014107D01*
X007238Y013919D01*
X007189Y013801D01*
X007099Y013711D01*
X006982Y013662D01*
X006579Y013662D01*
X006461Y013711D01*
X006371Y013801D01*
X006322Y013919D01*
X006322Y014230D01*
X006310Y014222D01*
X006297Y014209D01*
X006297Y014209D01*
X006297Y014100D01*
X005989Y014100D01*
X005989Y013812D01*
X006149Y013812D01*
X006192Y013824D01*
X006231Y013846D01*
X006263Y013878D01*
X006285Y013917D01*
X006297Y013960D01*
X006297Y014100D01*
X005989Y014100D01*
X005989Y014100D01*
X005989Y013812D01*
X005829Y013812D01*
X005785Y013824D01*
X005747Y013846D01*
X005715Y013878D01*
X005693Y013917D01*
X005681Y013960D01*
X005681Y014100D01*
X005812Y014100D01*
X005812Y014100D01*
X005681Y014100D01*
X005681Y014103D01*
X005681Y014083D02*
X004171Y014083D01*
X004171Y013944D02*
X005685Y013944D01*
X005989Y013944D02*
X005989Y013944D01*
X005989Y014083D02*
X005989Y014083D01*
X005989Y014100D02*
X005989Y014100D01*
X006297Y014083D02*
X006322Y014083D01*
X006309Y014221D02*
X006322Y014221D01*
X006322Y013944D02*
X006292Y013944D01*
X006369Y013806D02*
X004171Y013806D01*
X004171Y013667D02*
X006567Y013667D01*
X006993Y013667D02*
X009832Y013667D01*
X009832Y013529D02*
X004171Y013529D01*
X004791Y013390D02*
X004931Y013390D01*
X004931Y013252D02*
X004791Y013252D01*
X004791Y013113D02*
X004931Y013113D01*
X004931Y012975D02*
X009832Y012975D01*
X009832Y013113D02*
X006031Y013113D01*
X006031Y013252D02*
X009832Y013252D01*
X009832Y013390D02*
X006028Y013390D01*
X006031Y012836D02*
X009832Y012836D01*
X009832Y012698D02*
X006031Y012698D01*
X006031Y012559D02*
X009832Y012559D01*
X009832Y012421D02*
X006027Y012421D01*
X004931Y012421D02*
X004791Y012421D01*
X004791Y012559D02*
X004931Y012559D01*
X004931Y012698D02*
X004791Y012698D01*
X004791Y012836D02*
X004931Y012836D01*
X004128Y012282D02*
X009832Y012282D01*
X009832Y012144D02*
X004005Y012144D01*
X004005Y012005D02*
X009832Y012005D01*
X009832Y011867D02*
X004005Y011867D01*
X004005Y011728D02*
X009832Y011728D01*
X009832Y011590D02*
X004005Y011590D01*
X004004Y011451D02*
X009832Y011451D01*
X009832Y011313D02*
X004004Y011313D01*
X004004Y011174D02*
X009832Y011174D01*
X009832Y011036D02*
X004004Y011036D01*
X004004Y010897D02*
X009832Y010897D01*
X009832Y010759D02*
X004004Y010759D01*
X004004Y010620D02*
X009832Y010620D01*
X009832Y010482D02*
X004004Y010482D01*
X004004Y010343D02*
X009832Y010343D01*
X009832Y010205D02*
X004004Y010205D01*
X004004Y010066D02*
X009832Y010066D01*
X009832Y009928D02*
X004004Y009928D01*
X004003Y009789D02*
X009832Y009789D01*
X009832Y009651D02*
X004003Y009651D01*
X004003Y009512D02*
X009832Y009512D01*
X009832Y009374D02*
X004003Y009374D01*
X004003Y009235D02*
X009832Y009235D01*
X009832Y009097D02*
X004003Y009097D01*
X004003Y008958D02*
X009832Y008958D01*
X009832Y008820D02*
X004003Y008820D01*
X004003Y008681D02*
X009832Y008681D01*
X009832Y008543D02*
X004003Y008543D01*
X004003Y008404D02*
X009832Y008404D01*
X009832Y008266D02*
X004003Y008266D01*
X004002Y008127D02*
X009832Y008127D01*
X009832Y007989D02*
X004002Y007989D01*
X004002Y007850D02*
X009832Y007850D01*
X009832Y007712D02*
X004002Y007712D01*
X004002Y007573D02*
X009832Y007573D01*
X009832Y007435D02*
X004002Y007435D01*
X004002Y007296D02*
X009832Y007296D01*
X009832Y007158D02*
X004002Y007158D01*
X004002Y007019D02*
X009832Y007019D01*
X009832Y006881D02*
X004002Y006881D01*
X004002Y006742D02*
X009832Y006742D01*
X009832Y006604D02*
X004001Y006604D01*
X004001Y006465D02*
X009832Y006465D01*
X009832Y006327D02*
X004001Y006327D01*
X004001Y006188D02*
X009832Y006188D01*
X009832Y006050D02*
X004001Y006050D01*
X004001Y005911D02*
X009832Y005911D01*
X009832Y005773D02*
X004001Y005773D01*
X004001Y005634D02*
X009832Y005634D01*
X009832Y005496D02*
X004001Y005496D01*
X004001Y005357D02*
X004197Y005357D01*
X004908Y005357D02*
X009832Y005357D01*
X009832Y005219D02*
X005147Y005219D01*
X005286Y005080D02*
X009832Y005080D01*
X009832Y004942D02*
X005376Y004942D01*
X005433Y004803D02*
X009832Y004803D01*
X009832Y004665D02*
X005483Y004665D01*
X005483Y004526D02*
X009832Y004526D01*
X009832Y004388D02*
X005483Y004388D01*
X005457Y004249D02*
X009832Y004249D01*
X009832Y004111D02*
X005399Y004111D01*
X005342Y003972D02*
X009832Y003972D01*
X009832Y013806D02*
X007191Y013806D01*
X007238Y013944D02*
X009832Y013944D01*
X009336Y014083D02*
X007238Y014083D01*
D32*
X007673Y013820D03*
X008129Y013244D03*
X009129Y013244D03*
X008991Y013825D03*
X008891Y015325D03*
X008391Y015925D03*
X007791Y015325D03*
X007191Y015925D03*
X006591Y015325D03*
X005556Y015374D03*
X004860Y015370D03*
X004869Y013895D03*
X005554Y013887D03*
X006629Y012244D03*
X007129Y013244D03*
X007629Y012244D03*
X008629Y012244D03*
X009129Y011337D03*
X008129Y011244D03*
X008129Y010244D03*
X009129Y010244D03*
X009129Y009244D03*
X009129Y008244D03*
X009129Y007244D03*
X009129Y006244D03*
X009129Y005244D03*
X009129Y004244D03*
X008129Y004244D03*
X008129Y005244D03*
X008129Y006244D03*
X008129Y007244D03*
X008129Y008244D03*
X008129Y009244D03*
X007129Y009244D03*
X007129Y010244D03*
X007129Y011244D03*
X006129Y011244D03*
X006129Y010244D03*
X006129Y009244D03*
X006129Y008244D03*
X007129Y008244D03*
X007129Y007244D03*
X007129Y006244D03*
X007129Y005244D03*
X007129Y004244D03*
X006129Y004244D03*
X006129Y005244D03*
X006129Y006244D03*
X006129Y007244D03*
X005129Y007244D03*
X005129Y008244D03*
X005129Y009244D03*
X005129Y010244D03*
X005129Y011244D03*
X004129Y011244D03*
X004129Y010244D03*
X004129Y009244D03*
X004129Y008244D03*
X004129Y007244D03*
X004129Y006244D03*
X005129Y006244D03*
X012735Y006318D03*
X013235Y006318D03*
X013735Y006318D03*
X013735Y005318D03*
X013235Y005318D03*
X012735Y005318D03*
X012735Y004318D03*
X013235Y004318D03*
X013735Y004318D03*
X015435Y004518D03*
X015835Y004518D03*
X015835Y004918D03*
X015835Y005318D03*
X015835Y005718D03*
X015435Y005718D03*
X015435Y005318D03*
X015435Y004918D03*
X015835Y006218D03*
X017035Y006218D03*
X017035Y005718D03*
X017435Y005718D03*
X017435Y005318D03*
X017435Y004918D03*
X017435Y004518D03*
X017035Y004518D03*
X017035Y004918D03*
X017035Y005318D03*
X017935Y006218D03*
X018735Y006218D03*
X019135Y005718D03*
X019735Y005718D03*
X019735Y006218D03*
X019735Y007218D03*
X019735Y008218D03*
X018735Y008218D03*
X018735Y007218D03*
X017735Y007218D03*
X017235Y007218D03*
X017735Y008218D03*
X017735Y009318D03*
X018735Y009318D03*
X019735Y009318D03*
X019735Y010418D03*
X019735Y011318D03*
X019735Y012318D03*
X019735Y013318D03*
X018735Y013318D03*
X018735Y012318D03*
X018735Y011318D03*
X018735Y010418D03*
X017735Y010418D03*
X017735Y011318D03*
X017735Y012318D03*
X016735Y012318D03*
X016235Y012318D03*
X016135Y011318D03*
X016735Y011318D03*
X016735Y010418D03*
X016135Y010418D03*
X015085Y010318D03*
X015135Y011318D03*
X015135Y012318D03*
X015135Y013318D03*
X015335Y014018D03*
X016255Y013758D03*
X016755Y013758D03*
X017255Y013758D03*
X017525Y017078D03*
X017735Y018318D03*
X017235Y018818D03*
X017535Y019418D03*
X016735Y019318D03*
X016035Y019118D03*
X015735Y018318D03*
X016735Y018318D03*
X018735Y018318D03*
X019735Y017318D03*
X018285Y021168D03*
X017785Y021268D03*
X018285Y021868D03*
X018735Y023318D03*
X019535Y022918D03*
X019535Y022118D03*
X016885Y023618D03*
X016735Y024318D03*
X015785Y024068D03*
X014835Y022918D03*
X015585Y022818D03*
X014685Y021368D03*
X014085Y021468D03*
X014085Y020968D03*
X012735Y019318D03*
X012435Y020218D03*
X012435Y021568D03*
X012535Y022918D03*
X013735Y023118D03*
X013735Y024318D03*
X014735Y024218D03*
X015735Y021068D03*
X016285Y021068D03*
X013735Y018318D03*
X013735Y017318D03*
X014735Y017318D03*
X013735Y016318D03*
X012735Y016318D03*
X012735Y017318D03*
X012735Y018318D03*
X009291Y016025D03*
X009129Y016744D03*
X009129Y017744D03*
X009129Y018744D03*
X009129Y019744D03*
X009129Y020744D03*
X009129Y021744D03*
X009129Y022744D03*
X009129Y023744D03*
X008129Y023744D03*
X008129Y022744D03*
X008129Y021744D03*
X008129Y020744D03*
X008129Y019744D03*
X008129Y018744D03*
X008129Y017744D03*
X007629Y016744D03*
X007129Y017744D03*
X007129Y018744D03*
X007129Y019744D03*
X007129Y020744D03*
X007129Y021744D03*
X007129Y022744D03*
X007129Y023744D03*
X006129Y023744D03*
X006129Y022744D03*
X006129Y021744D03*
X006129Y020744D03*
X006129Y019744D03*
X006129Y018744D03*
X006129Y017744D03*
X006591Y016725D03*
X005129Y017744D03*
X005129Y018744D03*
X005129Y019744D03*
X005129Y020744D03*
X005129Y021744D03*
X005129Y022744D03*
X004129Y022744D03*
X004129Y021744D03*
X004129Y020744D03*
X004129Y019744D03*
X004129Y018744D03*
X004129Y017744D03*
X012735Y014318D03*
X012735Y013318D03*
X012735Y012318D03*
X012735Y011318D03*
X012735Y010318D03*
X012735Y009318D03*
X012735Y008418D03*
X013735Y008418D03*
X013735Y009318D03*
X013735Y010318D03*
X013735Y011318D03*
X013735Y012318D03*
X013735Y013318D03*
X013735Y014318D03*
X015035Y009318D03*
X016035Y009318D03*
X016735Y009318D03*
X016735Y008218D03*
X016035Y008218D03*
X012735Y007318D03*
D33*
X012782Y014578D02*
X010344Y014578D01*
X009674Y014576D02*
X006780Y014577D01*
D34*
X012147Y008697D02*
X014312Y008697D01*
X014316Y007938D01*
X013844Y007938D01*
X013750Y007900D01*
X013687Y007836D01*
X013679Y007838D01*
X013485Y007838D01*
X013485Y007530D01*
X013399Y007530D01*
X013399Y007838D01*
X013205Y007838D01*
X013166Y007828D01*
X013130Y007808D01*
X013101Y007779D01*
X013081Y007743D01*
X013070Y007704D01*
X013070Y007530D01*
X013399Y007530D01*
X013399Y007443D01*
X013485Y007443D01*
X013485Y007135D01*
X013679Y007135D01*
X013687Y007137D01*
X013750Y007074D01*
X013844Y007035D01*
X014192Y007035D01*
X014192Y006687D01*
X014231Y006593D01*
X014292Y006532D01*
X014292Y006462D01*
X014300Y006433D01*
X014292Y006404D01*
X014292Y006305D01*
X014664Y006305D01*
X015036Y006305D01*
X015036Y006404D01*
X015028Y006433D01*
X015036Y006462D01*
X015036Y006482D01*
X015417Y006482D01*
X015474Y006478D01*
X015483Y006482D01*
X015493Y006482D01*
X015546Y006503D01*
X015600Y006522D01*
X015607Y006529D01*
X015616Y006533D01*
X015657Y006573D01*
X015699Y006611D01*
X015704Y006620D01*
X015711Y006627D01*
X015732Y006679D01*
X015757Y006731D01*
X015758Y006741D01*
X015762Y006750D01*
X015762Y006807D01*
X015871Y008697D01*
X020023Y008697D01*
X020024Y004993D01*
X019915Y005102D01*
X019597Y005234D01*
X019253Y005234D01*
X018935Y005102D01*
X018780Y004948D01*
X018780Y005881D01*
X018769Y005920D01*
X018749Y005956D01*
X018720Y005985D01*
X018685Y006005D01*
X018645Y006016D01*
X018230Y006016D01*
X018230Y004916D01*
X018120Y004916D01*
X018120Y006016D01*
X017705Y006016D01*
X017665Y006005D01*
X017630Y005985D01*
X017601Y005956D01*
X017581Y005920D01*
X017570Y005881D01*
X017570Y004916D01*
X018120Y004916D01*
X018120Y004806D01*
X017570Y004806D01*
X017570Y004106D01*
X016915Y004106D01*
X016915Y005657D01*
X016915Y005658D01*
X016916Y005734D01*
X016920Y005745D01*
X016918Y005794D01*
X016921Y005843D01*
X016917Y005855D01*
X016915Y005911D01*
X016915Y005911D01*
X016915Y005911D01*
X016907Y006187D01*
X016907Y006434D01*
X016897Y006460D01*
X016897Y006918D01*
X016907Y006943D01*
X016907Y007202D01*
X016868Y007296D01*
X016797Y007368D01*
X016703Y007406D01*
X016168Y007406D01*
X016075Y007368D01*
X016003Y007296D01*
X015964Y007202D01*
X015964Y007147D01*
X015947Y007147D01*
X015947Y004106D01*
X015300Y004106D01*
X015300Y004806D01*
X014750Y004806D01*
X014750Y004916D01*
X014640Y004916D01*
X014640Y006016D01*
X014225Y006016D01*
X014185Y006005D01*
X014150Y005985D01*
X014121Y005956D01*
X014101Y005920D01*
X014090Y005881D01*
X014090Y004916D01*
X014640Y004916D01*
X014640Y004806D01*
X014090Y004806D01*
X014090Y004066D01*
X014019Y003995D01*
X013980Y003901D01*
X013980Y003810D01*
X012147Y003811D01*
X012147Y008697D01*
X012147Y008656D02*
X014312Y008656D01*
X014313Y008548D02*
X012147Y008548D01*
X012147Y008439D02*
X014313Y008439D01*
X014314Y008331D02*
X012147Y008331D01*
X012147Y008222D02*
X014315Y008222D01*
X014315Y008114D02*
X012147Y008114D01*
X012147Y008005D02*
X014316Y008005D01*
X013747Y007897D02*
X012147Y007897D01*
X012147Y007788D02*
X013111Y007788D01*
X013070Y007680D02*
X012147Y007680D01*
X012147Y007571D02*
X013070Y007571D01*
X013070Y007443D02*
X013070Y007269D01*
X013081Y007230D01*
X013101Y007195D01*
X013130Y007166D01*
X013166Y007145D01*
X013205Y007135D01*
X013399Y007135D01*
X013399Y007443D01*
X013070Y007443D01*
X013070Y007354D02*
X012147Y007354D01*
X012147Y007246D02*
X013077Y007246D01*
X013196Y007137D02*
X012147Y007137D01*
X012147Y007029D02*
X014192Y007029D01*
X014192Y006920D02*
X012147Y006920D01*
X012147Y006812D02*
X014192Y006812D01*
X014192Y006703D02*
X012147Y006703D01*
X012147Y006595D02*
X014231Y006595D01*
X014292Y006486D02*
X012147Y006486D01*
X012147Y006378D02*
X014292Y006378D01*
X014292Y006305D02*
X014292Y006206D01*
X014303Y006166D01*
X014323Y006131D01*
X014352Y006102D01*
X014388Y006082D01*
X014427Y006071D01*
X014664Y006071D01*
X014901Y006071D01*
X014940Y006082D01*
X014976Y006102D01*
X015005Y006131D01*
X015025Y006166D01*
X015036Y006206D01*
X015036Y006305D01*
X014664Y006305D01*
X014664Y006305D01*
X014664Y006305D01*
X014664Y006561D01*
X014664Y006305D02*
X014292Y006305D01*
X014292Y006269D02*
X012147Y006269D01*
X012147Y006161D02*
X014306Y006161D01*
X014114Y005944D02*
X012147Y005944D01*
X012147Y006052D02*
X015947Y006052D01*
X015947Y005944D02*
X015276Y005944D01*
X015269Y005956D02*
X015240Y005985D01*
X015205Y006005D01*
X015165Y006016D01*
X014750Y006016D01*
X014750Y004916D01*
X015300Y004916D01*
X015300Y005881D01*
X015289Y005920D01*
X015269Y005956D01*
X015300Y005835D02*
X015947Y005835D01*
X015947Y005727D02*
X015300Y005727D01*
X015300Y005618D02*
X015947Y005618D01*
X015947Y005510D02*
X015300Y005510D01*
X015300Y005401D02*
X015947Y005401D01*
X015947Y005293D02*
X015300Y005293D01*
X015300Y005184D02*
X015947Y005184D01*
X015947Y005076D02*
X015300Y005076D01*
X015300Y004967D02*
X015947Y004967D01*
X015947Y004859D02*
X014750Y004859D01*
X014750Y004967D02*
X014640Y004967D01*
X014640Y004859D02*
X012147Y004859D01*
X012147Y004967D02*
X014090Y004967D01*
X014090Y005076D02*
X012147Y005076D01*
X012147Y005184D02*
X014090Y005184D01*
X014090Y005293D02*
X012147Y005293D01*
X012147Y005401D02*
X014090Y005401D01*
X014090Y005510D02*
X012147Y005510D01*
X012147Y005618D02*
X014090Y005618D01*
X014090Y005727D02*
X012147Y005727D01*
X012147Y005835D02*
X014090Y005835D01*
X014640Y005835D02*
X014750Y005835D01*
X014750Y005727D02*
X014640Y005727D01*
X014640Y005618D02*
X014750Y005618D01*
X014750Y005510D02*
X014640Y005510D01*
X014640Y005401D02*
X014750Y005401D01*
X014750Y005293D02*
X014640Y005293D01*
X014640Y005184D02*
X014750Y005184D01*
X014750Y005076D02*
X014640Y005076D01*
X014090Y004750D02*
X012147Y004750D01*
X012147Y004642D02*
X014090Y004642D01*
X014090Y004533D02*
X012147Y004533D01*
X012147Y004425D02*
X014090Y004425D01*
X014090Y004316D02*
X012147Y004316D01*
X012147Y004208D02*
X014090Y004208D01*
X014090Y004099D02*
X012147Y004099D01*
X012147Y003991D02*
X014017Y003991D01*
X013980Y003882D02*
X012147Y003882D01*
X014640Y005944D02*
X014750Y005944D01*
X014664Y006071D02*
X014664Y006305D01*
X014664Y006305D01*
X014664Y006071D01*
X014664Y006161D02*
X014664Y006161D01*
X014664Y006269D02*
X014664Y006269D01*
X015022Y006161D02*
X015947Y006161D01*
X015947Y006269D02*
X015036Y006269D01*
X015036Y006378D02*
X015947Y006378D01*
X015947Y006486D02*
X015504Y006486D01*
X015681Y006595D02*
X015947Y006595D01*
X015947Y006703D02*
X015744Y006703D01*
X015762Y006812D02*
X015947Y006812D01*
X015947Y006920D02*
X015768Y006920D01*
X015774Y007029D02*
X015947Y007029D01*
X015947Y007137D02*
X015781Y007137D01*
X015787Y007246D02*
X015982Y007246D01*
X016061Y007354D02*
X015793Y007354D01*
X015799Y007463D02*
X020023Y007463D01*
X020023Y007571D02*
X015806Y007571D01*
X015812Y007680D02*
X020023Y007680D01*
X020023Y007788D02*
X015818Y007788D01*
X015825Y007897D02*
X020023Y007897D01*
X020023Y008005D02*
X015831Y008005D01*
X015837Y008114D02*
X020023Y008114D01*
X020023Y008222D02*
X015843Y008222D01*
X015850Y008331D02*
X020023Y008331D01*
X020023Y008439D02*
X015856Y008439D01*
X015862Y008548D02*
X020023Y008548D01*
X020023Y008656D02*
X015868Y008656D01*
X016810Y007354D02*
X020023Y007354D01*
X020023Y007246D02*
X016889Y007246D01*
X016907Y007137D02*
X020023Y007137D01*
X020023Y007029D02*
X016907Y007029D01*
X016898Y006920D02*
X020024Y006920D01*
X020024Y006812D02*
X016897Y006812D01*
X016897Y006703D02*
X020024Y006703D01*
X020024Y006595D02*
X016897Y006595D01*
X016897Y006486D02*
X020024Y006486D01*
X020024Y006378D02*
X016907Y006378D01*
X016907Y006269D02*
X020024Y006269D01*
X020024Y006161D02*
X016908Y006161D01*
X016911Y006052D02*
X020024Y006052D01*
X020024Y005944D02*
X018756Y005944D01*
X018780Y005835D02*
X020024Y005835D01*
X020024Y005727D02*
X018780Y005727D01*
X018780Y005618D02*
X020024Y005618D01*
X020024Y005510D02*
X018780Y005510D01*
X018780Y005401D02*
X020024Y005401D01*
X020024Y005293D02*
X018780Y005293D01*
X018780Y005184D02*
X019132Y005184D01*
X018908Y005076D02*
X018780Y005076D01*
X018780Y004967D02*
X018800Y004967D01*
X018230Y004967D02*
X018120Y004967D01*
X018120Y004859D02*
X016915Y004859D01*
X016915Y004967D02*
X017570Y004967D01*
X017570Y005076D02*
X016915Y005076D01*
X016915Y005184D02*
X017570Y005184D01*
X017570Y005293D02*
X016915Y005293D01*
X016915Y005401D02*
X017570Y005401D01*
X017570Y005510D02*
X016915Y005510D01*
X016915Y005618D02*
X017570Y005618D01*
X017570Y005727D02*
X016916Y005727D01*
X016920Y005835D02*
X017570Y005835D01*
X017594Y005944D02*
X016914Y005944D01*
X016608Y005798D02*
X016595Y006272D01*
X016273Y006262D01*
X016266Y005781D01*
X016346Y005722D01*
X016265Y005723D01*
X016266Y005781D02*
X016405Y005595D01*
X016506Y005574D01*
X016546Y005567D01*
X016606Y005721D02*
X016346Y005722D01*
X016351Y005771D02*
X016351Y006232D01*
X016540Y006232D01*
X016540Y005801D01*
X016608Y005798D01*
X016436Y006305D02*
X016435Y004861D01*
X016915Y004750D02*
X017570Y004750D01*
X017570Y004642D02*
X016915Y004642D01*
X016915Y004533D02*
X017570Y004533D01*
X017570Y004425D02*
X016915Y004425D01*
X016915Y004316D02*
X017570Y004316D01*
X017570Y004208D02*
X016915Y004208D01*
X015947Y004208D02*
X015300Y004208D01*
X015300Y004316D02*
X015947Y004316D01*
X015947Y004425D02*
X015300Y004425D01*
X015300Y004533D02*
X015947Y004533D01*
X015947Y004642D02*
X015300Y004642D01*
X015300Y004750D02*
X015947Y004750D01*
X016436Y006561D02*
X016436Y006817D01*
X018120Y005944D02*
X018230Y005944D01*
X018230Y005835D02*
X018120Y005835D01*
X018120Y005727D02*
X018230Y005727D01*
X018230Y005618D02*
X018120Y005618D01*
X018120Y005510D02*
X018230Y005510D01*
X018230Y005401D02*
X018120Y005401D01*
X018120Y005293D02*
X018230Y005293D01*
X018230Y005184D02*
X018120Y005184D01*
X018120Y005076D02*
X018230Y005076D01*
X019717Y005184D02*
X020024Y005184D01*
X020024Y005076D02*
X019941Y005076D01*
X013485Y007137D02*
X013399Y007137D01*
X013399Y007246D02*
X013485Y007246D01*
X013485Y007354D02*
X013399Y007354D01*
X013399Y007463D02*
X012147Y007463D01*
X013399Y007571D02*
X013485Y007571D01*
X013485Y007680D02*
X013399Y007680D01*
X013399Y007788D02*
X013485Y007788D01*
D35*
X014047Y006547D02*
X014597Y006547D01*
X014397Y006447D02*
X014397Y006197D01*
X014947Y006197D01*
X015097Y006447D02*
X014397Y006447D01*
X014617Y015238D02*
X012697Y015237D01*
X010350Y015237D01*
X017047Y021197D02*
X016297Y022047D01*
X017047Y021197D02*
X017927Y020136D01*
X019590Y021078D02*
X018497Y022647D01*
X012857Y023819D01*
M02*
