G75*
G70*
%OFA0B0*%
%FSLAX24Y24*%
%IPPOS*%
%LPD*%
%AMOC8*
5,1,8,0,0,1.08239X$1,22.5*
%
%ADD10C,0.0060*%
%ADD11C,0.0010*%
%ADD12C,0.0220*%
%ADD13R,0.0180X0.0300*%
%ADD14C,0.0080*%
%ADD15C,0.0050*%
%ADD16R,0.0197X0.0266*%
%ADD17R,0.0300X0.0180*%
%ADD18C,0.0100*%
D10*
X014963Y006201D02*
X014963Y007169D01*
X015066Y007271D02*
X016034Y007271D01*
X016133Y007169D02*
X016133Y006201D01*
X016132Y006204D02*
X016131Y006187D01*
X016126Y006170D01*
X016119Y006155D01*
X016109Y006141D01*
X016097Y006129D01*
X016083Y006119D01*
X016068Y006112D01*
X016051Y006107D01*
X016034Y006106D01*
X015062Y006106D01*
X015045Y006107D01*
X015028Y006112D01*
X015013Y006119D01*
X014999Y006129D01*
X014987Y006141D01*
X014977Y006155D01*
X014970Y006170D01*
X014965Y006187D01*
X014964Y006204D01*
X014937Y014558D02*
X016356Y014558D01*
X016356Y016418D02*
X014937Y016418D01*
X015996Y017022D02*
X015996Y017258D01*
X016469Y017258D02*
X016469Y017022D01*
X016661Y017019D02*
X016661Y017256D01*
X017134Y017256D02*
X017134Y017019D01*
X016791Y019538D02*
X016471Y019538D01*
X016791Y019538D02*
X016791Y019758D01*
X016791Y020438D02*
X016791Y020658D01*
X016471Y020658D01*
X018100Y020696D02*
X018100Y020476D01*
X018100Y020696D02*
X018420Y020696D01*
X018100Y019796D02*
X018100Y019576D01*
X018420Y019576D01*
D11*
X016541Y017920D02*
X016541Y017770D01*
X016491Y017770D02*
X016591Y017770D01*
X016491Y017870D02*
X016541Y017920D01*
X016444Y017745D02*
X016344Y017745D01*
X016297Y017795D02*
X016272Y017770D01*
X016222Y017770D01*
X016197Y017795D01*
X016149Y017795D02*
X016124Y017770D01*
X016074Y017770D01*
X016049Y017795D01*
X016002Y017795D02*
X015977Y017770D01*
X015927Y017770D01*
X015902Y017795D01*
X015902Y017845D02*
X015952Y017870D01*
X015977Y017870D01*
X016002Y017845D01*
X016002Y017795D01*
X016049Y017845D02*
X016099Y017870D01*
X016124Y017870D01*
X016149Y017845D01*
X016149Y017795D01*
X016197Y017845D02*
X016247Y017870D01*
X016272Y017870D01*
X016297Y017845D01*
X016297Y017795D01*
X016197Y017845D02*
X016197Y017920D01*
X016297Y017920D01*
X016149Y017920D02*
X016049Y017920D01*
X016049Y017845D01*
X016002Y017920D02*
X015902Y017920D01*
X015902Y017845D01*
X015855Y017745D02*
X015755Y017745D01*
X015707Y017770D02*
X015657Y017820D01*
X015682Y017820D02*
X015607Y017820D01*
X015607Y017770D02*
X015607Y017920D01*
X015682Y017920D01*
X015707Y017895D01*
X015707Y017845D01*
X015682Y017820D01*
X018799Y015830D02*
X018799Y015680D01*
X018799Y015730D02*
X018874Y015730D01*
X018899Y015755D01*
X018899Y015805D01*
X018874Y015830D01*
X018799Y015830D01*
X018849Y015730D02*
X018899Y015680D01*
X018946Y015655D02*
X019047Y015655D01*
X019094Y015705D02*
X019119Y015680D01*
X019169Y015680D01*
X019194Y015705D01*
X019194Y015755D01*
X019169Y015780D01*
X019144Y015780D01*
X019094Y015755D01*
X019094Y015830D01*
X019194Y015830D01*
X019241Y015830D02*
X019241Y015755D01*
X019291Y015780D01*
X019316Y015780D01*
X019341Y015755D01*
X019341Y015705D01*
X019316Y015680D01*
X019266Y015680D01*
X019241Y015705D01*
X019241Y015830D02*
X019341Y015830D01*
X019388Y015830D02*
X019388Y015755D01*
X019438Y015780D01*
X019463Y015780D01*
X019488Y015755D01*
X019488Y015705D01*
X019463Y015680D01*
X019413Y015680D01*
X019388Y015705D01*
X019388Y015830D02*
X019488Y015830D01*
X019536Y015655D02*
X019636Y015655D01*
X019683Y015680D02*
X019783Y015780D01*
X019783Y015805D01*
X019758Y015830D01*
X019708Y015830D01*
X019683Y015805D01*
X019683Y015680D02*
X019783Y015680D01*
X016156Y007177D02*
X016106Y007177D01*
X016107Y007178D02*
X016104Y007193D01*
X016099Y007207D01*
X016091Y007219D01*
X016080Y007230D01*
X016068Y007238D01*
X016054Y007243D01*
X016039Y007246D01*
X016038Y007295D01*
X016039Y007296D01*
X016059Y007293D01*
X016079Y007288D01*
X016097Y007279D01*
X016113Y007267D01*
X016128Y007252D01*
X016140Y007236D01*
X016149Y007218D01*
X016154Y007198D01*
X016157Y007178D01*
X016148Y007178D01*
X016146Y007197D01*
X016140Y007215D01*
X016132Y007231D01*
X016121Y007247D01*
X016108Y007260D01*
X016092Y007271D01*
X016076Y007279D01*
X016058Y007285D01*
X016039Y007287D01*
X016039Y007278D01*
X016058Y007275D01*
X016076Y007269D01*
X016093Y007260D01*
X016108Y007247D01*
X016121Y007232D01*
X016130Y007215D01*
X016136Y007197D01*
X016139Y007178D01*
X016130Y007178D01*
X016127Y007195D01*
X016122Y007212D01*
X016113Y007227D01*
X016102Y007241D01*
X016088Y007252D01*
X016073Y007261D01*
X016056Y007266D01*
X016039Y007269D01*
X016039Y007260D01*
X016057Y007257D01*
X016074Y007250D01*
X016089Y007241D01*
X016102Y007228D01*
X016111Y007213D01*
X016118Y007196D01*
X016121Y007178D01*
X016112Y007178D01*
X016109Y007194D01*
X016103Y007209D01*
X016095Y007222D01*
X016083Y007234D01*
X016070Y007242D01*
X016055Y007248D01*
X016039Y007251D01*
X015058Y007295D02*
X015058Y007245D01*
X015057Y007246D02*
X015042Y007243D01*
X015028Y007238D01*
X015016Y007230D01*
X015005Y007219D01*
X014997Y007207D01*
X014992Y007193D01*
X014989Y007178D01*
X014940Y007177D01*
X014939Y007178D01*
X014942Y007198D01*
X014947Y007218D01*
X014956Y007236D01*
X014968Y007252D01*
X014983Y007267D01*
X014999Y007279D01*
X015017Y007288D01*
X015037Y007293D01*
X015057Y007296D01*
X015057Y007287D01*
X015038Y007285D01*
X015020Y007279D01*
X015004Y007271D01*
X014988Y007260D01*
X014975Y007247D01*
X014964Y007231D01*
X014956Y007215D01*
X014950Y007197D01*
X014948Y007178D01*
X014957Y007178D01*
X014960Y007197D01*
X014966Y007215D01*
X014975Y007232D01*
X014988Y007247D01*
X015003Y007260D01*
X015020Y007269D01*
X015038Y007275D01*
X015057Y007278D01*
X015057Y007269D01*
X015040Y007266D01*
X015023Y007261D01*
X015008Y007252D01*
X014994Y007241D01*
X014983Y007227D01*
X014974Y007212D01*
X014969Y007195D01*
X014966Y007178D01*
X014975Y007178D01*
X014978Y007196D01*
X014985Y007213D01*
X014994Y007228D01*
X015007Y007241D01*
X015022Y007250D01*
X015039Y007257D01*
X015057Y007260D01*
X015057Y007251D01*
X015041Y007248D01*
X015026Y007242D01*
X015013Y007234D01*
X015001Y007222D01*
X014993Y007209D01*
X014987Y007194D01*
X014984Y007178D01*
D12*
X013777Y007475D02*
X013777Y007499D01*
X018293Y013859D02*
X018293Y013883D01*
X018293Y014436D02*
X018293Y014460D01*
X018293Y015044D02*
X018293Y015068D01*
X017011Y014265D02*
X017011Y014241D01*
X014957Y018473D02*
X014957Y018497D01*
X014953Y019714D02*
X014953Y019738D01*
X014960Y020460D02*
X014960Y020484D01*
X018458Y019042D02*
X018458Y019018D01*
X019578Y020743D02*
X019602Y020743D01*
D13*
X018178Y015740D03*
X017625Y013111D03*
X016125Y013111D03*
D14*
X003811Y012817D02*
X003240Y012817D01*
X003240Y013860D01*
X002394Y013860D01*
X002099Y013565D01*
X000603Y013565D01*
X000603Y013900D01*
X000140Y013900D01*
X000140Y015396D01*
X000603Y015396D01*
X000603Y015730D01*
X002099Y015730D01*
X002394Y015435D01*
X003240Y015435D01*
X003240Y016478D01*
X003811Y016478D01*
X003811Y016163D02*
X003811Y013132D01*
X012614Y020742D02*
X012614Y021333D01*
X012614Y020742D02*
X013559Y020742D01*
X013559Y021333D01*
X013559Y022120D02*
X013559Y022553D01*
X013402Y022711D01*
X012772Y022711D01*
X012614Y022553D01*
X012614Y022120D01*
X013194Y020496D02*
X014139Y020496D01*
X014139Y019905D01*
X014139Y019118D02*
X014139Y018685D01*
X013982Y018527D01*
X013352Y018527D01*
X013194Y018685D01*
X013194Y019118D01*
X013194Y019905D02*
X013194Y020496D01*
X014797Y021747D02*
X014797Y022247D01*
X015047Y022497D01*
X015547Y022497D01*
X015797Y022247D01*
X016047Y022497D01*
X016547Y022497D01*
X016797Y022247D01*
X017047Y022497D01*
X017547Y022497D01*
X017797Y022247D01*
X017797Y021747D01*
X017547Y021497D01*
X017047Y021497D01*
X016797Y021747D01*
X016547Y021497D01*
X016047Y021497D01*
X015797Y021747D01*
X015547Y021497D01*
X015047Y021497D01*
X014797Y021747D01*
X019206Y019692D02*
X019206Y019192D01*
X019456Y018942D01*
X019206Y018692D01*
X019206Y018192D01*
X019456Y017942D01*
X019956Y017942D01*
X020206Y018192D01*
X020206Y018692D01*
X019956Y018942D01*
X020206Y019192D01*
X020206Y019692D01*
X019956Y019942D01*
X019456Y019942D01*
X019206Y019692D01*
X019446Y015536D02*
X019196Y015286D01*
X019196Y014786D01*
X019446Y014536D01*
X019196Y014286D01*
X019196Y013786D01*
X019446Y013536D01*
X019946Y013536D01*
X020196Y013786D01*
X020196Y014286D01*
X019946Y014536D01*
X020196Y014786D01*
X020196Y015286D01*
X019946Y015536D01*
X019446Y015536D01*
X015200Y016198D02*
X015202Y016213D01*
X015208Y016226D01*
X015217Y016238D01*
X015228Y016247D01*
X015242Y016253D01*
X015257Y016255D01*
X015272Y016253D01*
X015285Y016247D01*
X015297Y016238D01*
X015306Y016227D01*
X015312Y016213D01*
X015314Y016198D01*
X015312Y016183D01*
X015306Y016170D01*
X015297Y016158D01*
X015286Y016149D01*
X015272Y016143D01*
X015257Y016141D01*
X015242Y016143D01*
X015229Y016149D01*
X015217Y016158D01*
X015208Y016169D01*
X015202Y016183D01*
X015200Y016198D01*
X014919Y003811D02*
X017951Y003811D01*
X018266Y003811D02*
X018266Y003240D01*
X017222Y003240D01*
X017222Y002394D01*
X017518Y002099D01*
X017518Y000603D01*
X017183Y000603D01*
X017183Y000140D01*
X015687Y000140D01*
X015687Y000603D01*
X015352Y000603D01*
X015352Y002099D01*
X015648Y002394D01*
X015648Y003240D01*
X014604Y003240D01*
X014604Y003811D01*
D15*
X018198Y016847D02*
X018631Y016847D01*
X018631Y017634D02*
X018198Y017634D01*
X014067Y019362D02*
X013267Y019362D01*
X013487Y021877D02*
X012687Y021877D01*
D16*
X018316Y017481D03*
D17*
X019076Y016075D03*
D18*
X015166Y006945D02*
X015168Y006967D01*
X015174Y006989D01*
X015183Y007009D01*
X015196Y007027D01*
X015212Y007043D01*
X015230Y007056D01*
X015250Y007065D01*
X015272Y007071D01*
X015294Y007073D01*
X015316Y007071D01*
X015338Y007065D01*
X015358Y007056D01*
X015376Y007043D01*
X015392Y007027D01*
X015405Y007009D01*
X015414Y006989D01*
X015420Y006967D01*
X015422Y006945D01*
X015420Y006923D01*
X015414Y006901D01*
X015405Y006881D01*
X015392Y006863D01*
X015376Y006847D01*
X015358Y006834D01*
X015338Y006825D01*
X015316Y006819D01*
X015294Y006817D01*
X015272Y006819D01*
X015250Y006825D01*
X015230Y006834D01*
X015212Y006847D01*
X015196Y006863D01*
X015183Y006881D01*
X015174Y006901D01*
X015168Y006923D01*
X015166Y006945D01*
M02*
