G75*
G70*
%OFA0B0*%
%FSLAX24Y24*%
%IPPOS*%
%LPD*%
%AMOC8*
5,1,8,0,0,1.08239X$1,22.5*
%
%ADD10C,0.0740*%
%ADD11R,0.2000X0.0900*%
%ADD12C,0.0760*%
%ADD13R,0.0900X0.2000*%
%ADD14C,0.0317*%
%ADD15C,0.0160*%
%ADD16C,0.0277*%
%ADD17C,0.0110*%
D10*
X015297Y021947D03*
X016297Y022047D03*
X017297Y021947D03*
X019706Y019512D03*
X019706Y018372D03*
X019696Y015106D03*
X019696Y013966D03*
D11*
X004861Y012908D03*
X004861Y016388D03*
D12*
X012857Y023819D03*
X017897Y023819D03*
D13*
X018175Y004861D03*
X014695Y004861D03*
D14*
X014615Y014247D03*
X015848Y014926D03*
X015547Y016487D03*
X017697Y016627D03*
X019348Y016894D03*
D15*
X003885Y012248D02*
X003880Y004971D01*
X004094Y005185D01*
X004391Y005308D01*
X004714Y005308D01*
X005012Y005185D01*
X005240Y004957D01*
X005363Y004659D01*
X005363Y004336D01*
X005240Y004039D01*
X005012Y003811D01*
X004885Y003758D01*
X009807Y003756D01*
X009807Y024577D01*
X005051Y024577D01*
X005277Y024352D01*
X005400Y024054D01*
X005400Y023731D01*
X005277Y023434D01*
X005049Y023206D01*
X004751Y023082D01*
X004428Y023082D01*
X004131Y023206D01*
X003903Y023434D01*
X003892Y023460D01*
X003888Y017048D01*
X003933Y017048D01*
X003963Y017018D01*
X004781Y017018D01*
X004781Y016468D01*
X004941Y016468D01*
X006041Y016468D01*
X006041Y016861D01*
X006028Y016907D01*
X006005Y016948D01*
X005971Y016982D01*
X005930Y017005D01*
X005884Y017018D01*
X004941Y017018D01*
X004941Y016468D01*
X004941Y016308D01*
X006041Y016308D01*
X006041Y015914D01*
X006028Y015868D01*
X006005Y015827D01*
X005971Y015794D01*
X005930Y015770D01*
X005884Y015758D01*
X004941Y015758D01*
X004941Y016308D01*
X004781Y016308D01*
X004781Y015758D01*
X004051Y015758D01*
X004051Y013538D01*
X004781Y013538D01*
X004781Y012988D01*
X004941Y012988D01*
X006041Y012988D01*
X006041Y013381D01*
X006028Y013427D01*
X006005Y013468D01*
X005971Y013502D01*
X005930Y013525D01*
X005884Y013538D01*
X004941Y013538D01*
X004941Y012988D01*
X004941Y012828D01*
X006041Y012828D01*
X006041Y012434D01*
X006028Y012388D01*
X006005Y012347D01*
X005971Y012314D01*
X005930Y012290D01*
X005884Y012278D01*
X004941Y012278D01*
X004941Y012828D01*
X004781Y012828D01*
X004781Y012278D01*
X003963Y012278D01*
X003933Y012248D01*
X003885Y012248D01*
X003960Y012274D02*
X009807Y012274D01*
X009807Y012116D02*
X003885Y012116D01*
X003885Y011957D02*
X009807Y011957D01*
X009807Y011799D02*
X003885Y011799D01*
X003885Y011640D02*
X009807Y011640D01*
X009807Y011482D02*
X003884Y011482D01*
X003884Y011323D02*
X009807Y011323D01*
X009807Y011165D02*
X003884Y011165D01*
X003884Y011006D02*
X009807Y011006D01*
X009807Y010848D02*
X003884Y010848D01*
X003884Y010689D02*
X009807Y010689D01*
X009807Y010531D02*
X003884Y010531D01*
X003884Y010372D02*
X009807Y010372D01*
X009807Y010214D02*
X003884Y010214D01*
X003884Y010055D02*
X009807Y010055D01*
X009807Y009897D02*
X003884Y009897D01*
X003883Y009738D02*
X009807Y009738D01*
X009807Y009580D02*
X003883Y009580D01*
X003883Y009421D02*
X009807Y009421D01*
X009807Y009263D02*
X003883Y009263D01*
X003883Y009104D02*
X009807Y009104D01*
X009807Y008946D02*
X003883Y008946D01*
X003883Y008787D02*
X009807Y008787D01*
X009807Y008629D02*
X003883Y008629D01*
X003883Y008470D02*
X009807Y008470D01*
X009807Y008312D02*
X003883Y008312D01*
X003882Y008153D02*
X009807Y008153D01*
X009807Y007995D02*
X003882Y007995D01*
X003882Y007836D02*
X009807Y007836D01*
X009807Y007678D02*
X003882Y007678D01*
X003882Y007519D02*
X009807Y007519D01*
X009807Y007361D02*
X003882Y007361D01*
X003882Y007202D02*
X009807Y007202D01*
X009807Y007044D02*
X003882Y007044D01*
X003882Y006885D02*
X009807Y006885D01*
X009807Y006727D02*
X003882Y006727D01*
X003881Y006568D02*
X009807Y006568D01*
X009807Y006410D02*
X003881Y006410D01*
X003881Y006251D02*
X009807Y006251D01*
X009807Y006093D02*
X003881Y006093D01*
X003881Y005934D02*
X009807Y005934D01*
X009807Y005776D02*
X003881Y005776D01*
X003881Y005617D02*
X009807Y005617D01*
X009807Y005459D02*
X003881Y005459D01*
X003881Y005300D02*
X004373Y005300D01*
X004051Y005142D02*
X003881Y005142D01*
X003881Y004983D02*
X003892Y004983D01*
X004732Y005300D02*
X009807Y005300D01*
X009807Y005142D02*
X005054Y005142D01*
X005213Y004983D02*
X009807Y004983D01*
X009807Y004825D02*
X005294Y004825D01*
X005360Y004666D02*
X009807Y004666D01*
X009807Y004508D02*
X005363Y004508D01*
X005363Y004349D02*
X009807Y004349D01*
X009807Y004191D02*
X005302Y004191D01*
X005233Y004032D02*
X009807Y004032D01*
X009807Y003874D02*
X005074Y003874D01*
X012157Y007944D02*
X012147Y024577D01*
X019118Y024577D01*
X018978Y024519D01*
X018750Y024291D01*
X018626Y023993D01*
X018626Y023670D01*
X018750Y023373D01*
X018978Y023145D01*
X019275Y023021D01*
X019598Y023021D01*
X019896Y023145D01*
X020073Y023322D01*
X020074Y019949D01*
X020029Y019995D01*
X019819Y020082D01*
X019592Y020082D01*
X019383Y019995D01*
X019222Y019835D01*
X019136Y019625D01*
X019136Y019398D01*
X019222Y019189D01*
X019383Y019028D01*
X019592Y018942D01*
X019819Y018942D01*
X020029Y019028D01*
X020075Y019074D01*
X020075Y018780D01*
X020064Y018791D01*
X019994Y018842D01*
X019917Y018881D01*
X019834Y018908D01*
X019749Y018922D01*
X019724Y018922D01*
X019724Y018390D01*
X019687Y018390D01*
X019687Y018353D01*
X019724Y018353D01*
X019724Y017822D01*
X019687Y017822D01*
X019687Y018353D01*
X019156Y018353D01*
X019156Y018328D01*
X019169Y018243D01*
X019196Y018161D01*
X019235Y018083D01*
X019286Y018013D01*
X019347Y017952D01*
X019417Y017901D01*
X019495Y017862D01*
X019577Y017835D01*
X019662Y017822D01*
X012151Y017822D01*
X012151Y017980D02*
X019319Y017980D01*
X019207Y018139D02*
X012151Y018139D01*
X012151Y018297D02*
X019161Y018297D01*
X019156Y018390D02*
X019687Y018390D01*
X019687Y018922D01*
X019662Y018922D01*
X019577Y018908D01*
X019495Y018881D01*
X019417Y018842D01*
X019347Y018791D01*
X019286Y018730D01*
X019235Y018660D01*
X019196Y018583D01*
X019169Y018500D01*
X019156Y018415D01*
X019156Y018390D01*
X019162Y018456D02*
X012151Y018456D01*
X012150Y018614D02*
X019212Y018614D01*
X019329Y018773D02*
X012150Y018773D01*
X012150Y018931D02*
X020075Y018931D01*
X019724Y018773D02*
X019687Y018773D01*
X019687Y018614D02*
X019724Y018614D01*
X019724Y018456D02*
X019687Y018456D01*
X019687Y018297D02*
X019724Y018297D01*
X019724Y018139D02*
X019687Y018139D01*
X019687Y017980D02*
X019724Y017980D01*
X019724Y017822D02*
X019749Y017822D01*
X020075Y017822D01*
X019994Y017901D02*
X020064Y017952D01*
X020075Y017963D01*
X020076Y015532D01*
X020019Y015589D01*
X019809Y015676D01*
X019583Y015676D01*
X019373Y015589D01*
X019213Y015429D01*
X019126Y015219D01*
X019126Y014992D01*
X019213Y014783D01*
X019373Y014623D01*
X019583Y014536D01*
X019809Y014536D01*
X020019Y014623D01*
X020076Y014680D01*
X020076Y014363D01*
X020054Y014385D01*
X019984Y014436D01*
X019907Y014475D01*
X019825Y014502D01*
X019739Y014516D01*
X019714Y014516D01*
X019714Y013984D01*
X019678Y013984D01*
X019678Y014516D01*
X019653Y014516D01*
X019567Y014502D01*
X019485Y014475D01*
X019408Y014436D01*
X019338Y014385D01*
X019276Y014324D01*
X019226Y014254D01*
X019186Y014177D01*
X019159Y014095D01*
X019146Y014009D01*
X019146Y013984D01*
X019678Y013984D01*
X019678Y013947D01*
X019714Y013947D01*
X019714Y013416D01*
X019739Y013416D01*
X019825Y013429D01*
X019907Y013456D01*
X019984Y013495D01*
X020054Y013546D01*
X020076Y013568D01*
X020078Y007944D01*
X012157Y007944D01*
X012157Y007995D02*
X020078Y007995D01*
X020078Y008153D02*
X012157Y008153D01*
X012156Y008312D02*
X020078Y008312D01*
X020078Y008470D02*
X012156Y008470D01*
X012156Y008629D02*
X020078Y008629D01*
X020078Y008787D02*
X012156Y008787D01*
X012156Y008946D02*
X020078Y008946D01*
X020078Y009104D02*
X012156Y009104D01*
X012156Y009263D02*
X020078Y009263D01*
X020078Y009421D02*
X012156Y009421D01*
X012156Y009580D02*
X020078Y009580D01*
X020078Y009738D02*
X012156Y009738D01*
X012155Y009897D02*
X020078Y009897D01*
X020077Y010055D02*
X012155Y010055D01*
X012155Y010214D02*
X020077Y010214D01*
X020077Y010372D02*
X012155Y010372D01*
X012155Y010531D02*
X020077Y010531D01*
X020077Y010689D02*
X012155Y010689D01*
X012155Y010848D02*
X020077Y010848D01*
X020077Y011006D02*
X012155Y011006D01*
X012155Y011165D02*
X020077Y011165D01*
X020077Y011323D02*
X012155Y011323D01*
X012155Y011482D02*
X020077Y011482D01*
X020077Y011640D02*
X012154Y011640D01*
X012154Y011799D02*
X020077Y011799D01*
X020077Y011957D02*
X012154Y011957D01*
X012154Y012116D02*
X020077Y012116D01*
X020077Y012274D02*
X012154Y012274D01*
X012154Y012433D02*
X020077Y012433D01*
X020077Y012591D02*
X012154Y012591D01*
X012154Y012750D02*
X020077Y012750D01*
X020077Y012908D02*
X012154Y012908D01*
X012154Y013067D02*
X020076Y013067D01*
X020076Y013225D02*
X012154Y013225D01*
X012153Y013384D02*
X020076Y013384D01*
X020076Y013542D02*
X020049Y013542D01*
X019714Y013542D02*
X019678Y013542D01*
X019678Y013416D02*
X019678Y013947D01*
X019146Y013947D01*
X019146Y013922D01*
X019159Y013837D01*
X019186Y013755D01*
X019226Y013677D01*
X019276Y013607D01*
X019338Y013546D01*
X019408Y013495D01*
X019485Y013456D01*
X019567Y013429D01*
X019653Y013416D01*
X019678Y013416D01*
X019678Y013701D02*
X019714Y013701D01*
X019714Y013859D02*
X019678Y013859D01*
X019678Y014018D02*
X019714Y014018D01*
X019714Y014176D02*
X019678Y014176D01*
X019678Y014335D02*
X019714Y014335D01*
X019714Y014493D02*
X019678Y014493D01*
X019539Y014493D02*
X015020Y014493D01*
X014960Y014349D02*
X015718Y016170D01*
X015750Y016183D01*
X015789Y016222D01*
X017484Y016332D01*
X017494Y016323D01*
X017625Y016268D01*
X017664Y016268D01*
X015914Y015284D01*
X015776Y015284D01*
X015645Y015229D01*
X015544Y015129D01*
X015489Y014997D01*
X015489Y014854D01*
X015544Y014723D01*
X015645Y014622D01*
X015776Y014567D01*
X015919Y014567D01*
X016051Y014622D01*
X016151Y014723D01*
X016180Y014791D01*
X019281Y016535D01*
X019419Y016535D01*
X019551Y016590D01*
X019651Y016691D01*
X019706Y016822D01*
X019706Y016965D01*
X019651Y017097D01*
X019551Y017197D01*
X019419Y017252D01*
X019276Y017252D01*
X019145Y017197D01*
X019044Y017097D01*
X019015Y017028D01*
X018019Y016468D01*
X018055Y016555D01*
X018055Y016698D01*
X018000Y016830D01*
X017900Y016930D01*
X017768Y016985D01*
X017625Y016985D01*
X017494Y016930D01*
X017455Y016891D01*
X015759Y016781D01*
X015750Y016790D01*
X015618Y016845D01*
X015475Y016845D01*
X015344Y016790D01*
X015243Y016690D01*
X015188Y016558D01*
X015188Y016415D01*
X015201Y016385D01*
X014443Y014564D01*
X014411Y014550D01*
X014311Y014450D01*
X014256Y014318D01*
X014256Y014175D01*
X014311Y014044D01*
X014411Y013943D01*
X014543Y013888D01*
X014686Y013888D01*
X014818Y013943D01*
X014918Y014044D01*
X014973Y014175D01*
X014973Y014318D01*
X014960Y014349D01*
X014966Y014335D02*
X019287Y014335D01*
X019186Y014176D02*
X014973Y014176D01*
X014892Y014018D02*
X019147Y014018D01*
X019156Y013859D02*
X012153Y013859D01*
X012153Y013701D02*
X019214Y013701D01*
X019343Y013542D02*
X012153Y013542D01*
X012153Y014018D02*
X014337Y014018D01*
X014256Y014176D02*
X012153Y014176D01*
X012153Y014335D02*
X014263Y014335D01*
X014354Y014493D02*
X012153Y014493D01*
X012153Y014652D02*
X014480Y014652D01*
X014546Y014810D02*
X012153Y014810D01*
X012153Y014969D02*
X014612Y014969D01*
X014678Y015127D02*
X012152Y015127D01*
X012152Y015286D02*
X014744Y015286D01*
X014810Y015444D02*
X012152Y015444D01*
X012152Y015603D02*
X014876Y015603D01*
X014941Y015761D02*
X012152Y015761D01*
X012152Y015920D02*
X015007Y015920D01*
X015073Y016078D02*
X012152Y016078D01*
X012152Y016237D02*
X015139Y016237D01*
X015197Y016395D02*
X012152Y016395D01*
X012152Y016554D02*
X015188Y016554D01*
X015265Y016712D02*
X012152Y016712D01*
X012151Y016871D02*
X017135Y016871D01*
X017697Y016627D02*
X015547Y016487D01*
X014615Y014247D01*
X015086Y014652D02*
X015615Y014652D01*
X015508Y014810D02*
X015152Y014810D01*
X015218Y014969D02*
X015489Y014969D01*
X015543Y015127D02*
X015284Y015127D01*
X015350Y015286D02*
X015917Y015286D01*
X015482Y015603D02*
X016480Y015603D01*
X016199Y015444D02*
X015416Y015444D01*
X015548Y015761D02*
X016762Y015761D01*
X017044Y015920D02*
X015614Y015920D01*
X015680Y016078D02*
X017326Y016078D01*
X017608Y016237D02*
X016017Y016237D01*
X016777Y015127D02*
X019126Y015127D01*
X019136Y014969D02*
X016495Y014969D01*
X016214Y014810D02*
X019201Y014810D01*
X019344Y014652D02*
X016081Y014652D01*
X015848Y014926D02*
X019348Y016894D01*
X019679Y017029D02*
X020075Y017029D01*
X020075Y016871D02*
X019706Y016871D01*
X019660Y016712D02*
X020075Y016712D01*
X020075Y016554D02*
X019463Y016554D01*
X019032Y016395D02*
X020075Y016395D01*
X020075Y016237D02*
X018751Y016237D01*
X018469Y016078D02*
X020075Y016078D01*
X020076Y015920D02*
X018187Y015920D01*
X017905Y015761D02*
X020076Y015761D01*
X020076Y015603D02*
X019986Y015603D01*
X019406Y015603D02*
X017623Y015603D01*
X017341Y015444D02*
X019228Y015444D01*
X019153Y015286D02*
X017059Y015286D01*
X018054Y016554D02*
X018172Y016554D01*
X018049Y016712D02*
X018454Y016712D01*
X018735Y016871D02*
X017959Y016871D01*
X019016Y017029D02*
X012151Y017029D01*
X012151Y017188D02*
X019135Y017188D01*
X019560Y017188D02*
X020075Y017188D01*
X020075Y017346D02*
X012151Y017346D01*
X012151Y017505D02*
X020075Y017505D01*
X020075Y017663D02*
X012151Y017663D01*
X012150Y019090D02*
X019322Y019090D01*
X019198Y019248D02*
X012150Y019248D01*
X012150Y019407D02*
X019136Y019407D01*
X019136Y019565D02*
X012150Y019565D01*
X012150Y019724D02*
X019176Y019724D01*
X019270Y019882D02*
X012150Y019882D01*
X012150Y020041D02*
X019493Y020041D01*
X019918Y020041D02*
X020074Y020041D01*
X020074Y020199D02*
X012150Y020199D01*
X012149Y020358D02*
X020074Y020358D01*
X020074Y020516D02*
X012149Y020516D01*
X012149Y020675D02*
X020074Y020675D01*
X020074Y020833D02*
X012149Y020833D01*
X012149Y020992D02*
X020074Y020992D01*
X020074Y021150D02*
X012149Y021150D01*
X012149Y021309D02*
X020074Y021309D01*
X020074Y021467D02*
X017623Y021467D01*
X017620Y021463D02*
X017780Y021624D01*
X017867Y021833D01*
X017867Y022060D01*
X017780Y022270D01*
X017620Y022430D01*
X017410Y022517D01*
X017183Y022517D01*
X016974Y022430D01*
X016819Y022275D01*
X016780Y022370D01*
X016620Y022530D01*
X016410Y022617D01*
X016183Y022617D01*
X015974Y022530D01*
X015813Y022370D01*
X015774Y022275D01*
X015620Y022430D01*
X015410Y022517D01*
X015183Y022517D01*
X014974Y022430D01*
X014813Y022270D01*
X014727Y022060D01*
X014727Y021833D01*
X014813Y021624D01*
X014974Y021463D01*
X015183Y021377D01*
X015410Y021377D01*
X015620Y021463D01*
X015780Y021624D01*
X015819Y021718D01*
X015974Y021563D01*
X016183Y021477D01*
X016410Y021477D01*
X016620Y021563D01*
X016774Y021718D01*
X016813Y021624D01*
X016974Y021463D01*
X017183Y021377D01*
X017410Y021377D01*
X017620Y021463D01*
X017781Y021626D02*
X020074Y021626D01*
X020074Y021784D02*
X017846Y021784D01*
X017867Y021943D02*
X020074Y021943D01*
X020074Y022101D02*
X017850Y022101D01*
X017784Y022260D02*
X020073Y022260D01*
X020073Y022418D02*
X017631Y022418D01*
X016962Y022418D02*
X016731Y022418D01*
X016507Y022577D02*
X020073Y022577D01*
X020073Y022735D02*
X012148Y022735D01*
X012148Y022577D02*
X016087Y022577D01*
X015862Y022418D02*
X015631Y022418D01*
X014962Y022418D02*
X012148Y022418D01*
X012148Y022260D02*
X014809Y022260D01*
X014744Y022101D02*
X012148Y022101D01*
X012148Y021943D02*
X014727Y021943D01*
X014747Y021784D02*
X012149Y021784D01*
X012149Y021626D02*
X014813Y021626D01*
X014970Y021467D02*
X012149Y021467D01*
X012148Y022894D02*
X020073Y022894D01*
X020073Y023052D02*
X019672Y023052D01*
X019962Y023211D02*
X020073Y023211D01*
X019201Y023052D02*
X012148Y023052D01*
X012148Y023211D02*
X018912Y023211D01*
X018753Y023369D02*
X018230Y023369D01*
X018261Y023392D02*
X018324Y023455D01*
X018376Y023526D01*
X018416Y023604D01*
X018443Y023688D01*
X018457Y023775D01*
X018457Y023801D01*
X017915Y023801D01*
X017915Y023259D01*
X017941Y023259D01*
X018028Y023273D01*
X018112Y023300D01*
X018190Y023340D01*
X018261Y023392D01*
X018377Y023528D02*
X018686Y023528D01*
X018626Y023686D02*
X018442Y023686D01*
X018457Y023838D02*
X018457Y023863D01*
X018443Y023951D01*
X018416Y024034D01*
X018376Y024113D01*
X018324Y024184D01*
X018261Y024247D01*
X018190Y024298D01*
X018112Y024338D01*
X018028Y024366D01*
X017941Y024379D01*
X017915Y024379D01*
X017915Y023838D01*
X017878Y023838D01*
X017878Y023801D01*
X017337Y023801D01*
X017337Y023775D01*
X017350Y023688D01*
X017378Y023604D01*
X017418Y023526D01*
X017470Y023455D01*
X017532Y023392D01*
X017603Y023340D01*
X017682Y023300D01*
X017766Y023273D01*
X017853Y023259D01*
X017878Y023259D01*
X017878Y023801D01*
X017915Y023801D01*
X017915Y023838D01*
X018457Y023838D01*
X018457Y023845D02*
X018626Y023845D01*
X018631Y024003D02*
X018426Y024003D01*
X018340Y024162D02*
X018696Y024162D01*
X018779Y024320D02*
X018147Y024320D01*
X017915Y024320D02*
X017878Y024320D01*
X017878Y024379D02*
X017853Y024379D01*
X017766Y024366D01*
X017682Y024338D01*
X017603Y024298D01*
X017532Y024247D01*
X017470Y024184D01*
X017418Y024113D01*
X017378Y024034D01*
X017350Y023951D01*
X017337Y023863D01*
X017337Y023838D01*
X017878Y023838D01*
X017878Y024379D01*
X017878Y024162D02*
X017915Y024162D01*
X017915Y024003D02*
X017878Y024003D01*
X017878Y023845D02*
X017915Y023845D01*
X017915Y023686D02*
X017878Y023686D01*
X017878Y023528D02*
X017915Y023528D01*
X017915Y023369D02*
X017878Y023369D01*
X017564Y023369D02*
X013227Y023369D01*
X013186Y023328D02*
X012973Y023239D01*
X012742Y023239D01*
X012529Y023328D01*
X012366Y023491D01*
X012277Y023704D01*
X012277Y023935D01*
X012366Y024148D01*
X012529Y024311D01*
X012742Y024399D01*
X012973Y024399D01*
X013186Y024311D01*
X013349Y024148D01*
X013437Y023935D01*
X013437Y023704D01*
X013349Y023491D01*
X013186Y023328D01*
X013364Y023528D02*
X017417Y023528D01*
X017351Y023686D02*
X013430Y023686D01*
X013437Y023845D02*
X017337Y023845D01*
X017368Y024003D02*
X013409Y024003D01*
X013335Y024162D02*
X017453Y024162D01*
X017646Y024320D02*
X013164Y024320D01*
X012551Y024320D02*
X012147Y024320D01*
X012147Y024162D02*
X012379Y024162D01*
X012306Y024003D02*
X012147Y024003D01*
X012147Y023845D02*
X012277Y023845D01*
X012285Y023686D02*
X012147Y023686D01*
X012148Y023528D02*
X012350Y023528D01*
X012487Y023369D02*
X012148Y023369D01*
X012147Y024479D02*
X018938Y024479D01*
X016813Y021626D02*
X016682Y021626D01*
X016970Y021467D02*
X015623Y021467D01*
X015781Y021626D02*
X015911Y021626D01*
X019662Y017822D02*
X019687Y017822D01*
X019749Y017822D02*
X019834Y017835D01*
X019917Y017862D01*
X019994Y017901D01*
X020048Y014652D02*
X020076Y014652D01*
X020076Y014493D02*
X019853Y014493D01*
X009807Y014493D02*
X004051Y014493D01*
X004051Y014335D02*
X009807Y014335D01*
X009807Y014176D02*
X004051Y014176D01*
X004051Y014018D02*
X009807Y014018D01*
X009807Y013859D02*
X004051Y013859D01*
X004051Y013701D02*
X009807Y013701D01*
X009807Y013542D02*
X004051Y013542D01*
X004781Y013384D02*
X004941Y013384D01*
X004941Y013225D02*
X004781Y013225D01*
X004781Y013067D02*
X004941Y013067D01*
X004941Y012908D02*
X009807Y012908D01*
X009807Y012750D02*
X006041Y012750D01*
X006041Y012591D02*
X009807Y012591D01*
X009807Y012433D02*
X006040Y012433D01*
X006041Y013067D02*
X009807Y013067D01*
X009807Y013225D02*
X006041Y013225D01*
X006040Y013384D02*
X009807Y013384D01*
X009807Y014652D02*
X004051Y014652D01*
X004051Y014810D02*
X009807Y014810D01*
X009807Y014969D02*
X004051Y014969D01*
X004051Y015127D02*
X009807Y015127D01*
X009807Y015286D02*
X004051Y015286D01*
X004051Y015444D02*
X009807Y015444D01*
X009807Y015603D02*
X004051Y015603D01*
X004781Y015761D02*
X004941Y015761D01*
X004941Y015920D02*
X004781Y015920D01*
X004781Y016078D02*
X004941Y016078D01*
X004941Y016237D02*
X004781Y016237D01*
X004941Y016395D02*
X009807Y016395D01*
X009807Y016237D02*
X006041Y016237D01*
X006041Y016078D02*
X009807Y016078D01*
X009807Y015920D02*
X006041Y015920D01*
X005897Y015761D02*
X009807Y015761D01*
X009807Y016554D02*
X006041Y016554D01*
X006041Y016712D02*
X009807Y016712D01*
X009807Y016871D02*
X006038Y016871D01*
X004941Y016871D02*
X004781Y016871D01*
X004781Y016712D02*
X004941Y016712D01*
X004941Y016554D02*
X004781Y016554D01*
X003952Y017029D02*
X009807Y017029D01*
X009807Y017188D02*
X003888Y017188D01*
X003888Y017346D02*
X009807Y017346D01*
X009807Y017505D02*
X003888Y017505D01*
X003888Y017663D02*
X009807Y017663D01*
X009807Y017822D02*
X003888Y017822D01*
X003888Y017980D02*
X009807Y017980D01*
X009807Y018139D02*
X003889Y018139D01*
X003889Y018297D02*
X009807Y018297D01*
X009807Y018456D02*
X003889Y018456D01*
X003889Y018614D02*
X009807Y018614D01*
X009807Y018773D02*
X003889Y018773D01*
X003889Y018931D02*
X009807Y018931D01*
X009807Y019090D02*
X003889Y019090D01*
X003889Y019248D02*
X009807Y019248D01*
X009807Y019407D02*
X003889Y019407D01*
X003889Y019565D02*
X009807Y019565D01*
X009807Y019724D02*
X003890Y019724D01*
X003890Y019882D02*
X009807Y019882D01*
X009807Y020041D02*
X003890Y020041D01*
X003890Y020199D02*
X009807Y020199D01*
X009807Y020358D02*
X003890Y020358D01*
X003890Y020516D02*
X009807Y020516D01*
X009807Y020675D02*
X003890Y020675D01*
X003890Y020833D02*
X009807Y020833D01*
X009807Y020992D02*
X003890Y020992D01*
X003890Y021150D02*
X009807Y021150D01*
X009807Y021309D02*
X003891Y021309D01*
X003891Y021467D02*
X009807Y021467D01*
X009807Y021626D02*
X003891Y021626D01*
X003891Y021784D02*
X009807Y021784D01*
X009807Y021943D02*
X003891Y021943D01*
X003891Y022101D02*
X009807Y022101D01*
X009807Y022260D02*
X003891Y022260D01*
X003891Y022418D02*
X009807Y022418D01*
X009807Y022577D02*
X003891Y022577D01*
X003891Y022735D02*
X009807Y022735D01*
X009807Y022894D02*
X003891Y022894D01*
X003892Y023052D02*
X009807Y023052D01*
X009807Y023211D02*
X005054Y023211D01*
X005212Y023369D02*
X009807Y023369D01*
X009807Y023528D02*
X005315Y023528D01*
X005381Y023686D02*
X009807Y023686D01*
X009807Y023845D02*
X005400Y023845D01*
X005400Y024003D02*
X009807Y024003D01*
X009807Y024162D02*
X005355Y024162D01*
X005290Y024320D02*
X009807Y024320D01*
X009807Y024479D02*
X005149Y024479D01*
X003967Y023369D02*
X003892Y023369D01*
X003892Y023211D02*
X004126Y023211D01*
X004781Y012750D02*
X004941Y012750D01*
X004941Y012591D02*
X004781Y012591D01*
X004781Y012433D02*
X004941Y012433D01*
D16*
X005129Y011244D03*
X005129Y010244D03*
X005129Y009244D03*
X005129Y008244D03*
X005129Y007244D03*
X005129Y006244D03*
X004129Y006244D03*
X004129Y007244D03*
X004129Y008244D03*
X004129Y009244D03*
X004129Y010244D03*
X004129Y011244D03*
X006129Y011244D03*
X007129Y011244D03*
X007129Y010244D03*
X007129Y009244D03*
X007129Y008244D03*
X007129Y007244D03*
X007129Y006244D03*
X007129Y005244D03*
X007129Y004244D03*
X006129Y004244D03*
X006129Y005244D03*
X006129Y006244D03*
X006129Y007244D03*
X006129Y008244D03*
X006129Y009244D03*
X006129Y010244D03*
X006629Y012244D03*
X007129Y013244D03*
X007673Y013820D03*
X008129Y013244D03*
X009129Y013244D03*
X008991Y013825D03*
X008891Y015325D03*
X008391Y015925D03*
X007791Y015325D03*
X007191Y015925D03*
X006591Y015325D03*
X005556Y015374D03*
X004860Y015370D03*
X004869Y013895D03*
X005554Y013887D03*
X007629Y012244D03*
X008629Y012244D03*
X009129Y011337D03*
X008129Y011244D03*
X008129Y010244D03*
X009129Y010244D03*
X009129Y009244D03*
X009129Y008244D03*
X009129Y007244D03*
X009129Y006244D03*
X009129Y005244D03*
X009129Y004244D03*
X008129Y004244D03*
X008129Y005244D03*
X008129Y006244D03*
X008129Y007244D03*
X008129Y008244D03*
X008129Y009244D03*
X012735Y009318D03*
X012735Y008418D03*
X013735Y008418D03*
X013735Y009318D03*
X013735Y010318D03*
X013735Y011318D03*
X013735Y012318D03*
X013735Y013318D03*
X013735Y014318D03*
X012735Y014318D03*
X012735Y013318D03*
X012735Y012318D03*
X012735Y011318D03*
X012735Y010318D03*
X015085Y010318D03*
X015135Y011318D03*
X016135Y011318D03*
X016735Y011318D03*
X016735Y010418D03*
X016135Y010418D03*
X016035Y009318D03*
X016735Y009318D03*
X016735Y008218D03*
X016035Y008218D03*
X015035Y009318D03*
X017235Y007218D03*
X017735Y007218D03*
X018735Y007218D03*
X019735Y007218D03*
X019735Y008218D03*
X018735Y008218D03*
X017735Y008218D03*
X017735Y009318D03*
X018735Y009318D03*
X019735Y009318D03*
X019735Y010418D03*
X019735Y011318D03*
X019735Y012318D03*
X019735Y013318D03*
X018735Y013318D03*
X018735Y012318D03*
X018735Y011318D03*
X018735Y010418D03*
X017735Y010418D03*
X017735Y011318D03*
X017735Y012318D03*
X016735Y012318D03*
X016235Y012318D03*
X015135Y012318D03*
X015135Y013318D03*
X015335Y014018D03*
X016255Y013758D03*
X016755Y013758D03*
X017255Y013758D03*
X017525Y017078D03*
X017735Y018318D03*
X017235Y018818D03*
X017535Y019418D03*
X016735Y019318D03*
X016035Y019118D03*
X015735Y018318D03*
X016735Y018318D03*
X018735Y018318D03*
X019735Y017318D03*
X018285Y021168D03*
X017785Y021268D03*
X018285Y021868D03*
X018735Y023318D03*
X019535Y022918D03*
X019535Y022118D03*
X016885Y023618D03*
X016735Y024318D03*
X015785Y024068D03*
X014835Y022918D03*
X015585Y022818D03*
X014685Y021368D03*
X014085Y021468D03*
X014085Y020968D03*
X012735Y019318D03*
X012435Y020218D03*
X012435Y021568D03*
X012535Y022918D03*
X013735Y023118D03*
X013735Y024318D03*
X014735Y024218D03*
X015735Y021068D03*
X016285Y021068D03*
X013735Y018318D03*
X013735Y017318D03*
X014735Y017318D03*
X013735Y016318D03*
X012735Y016318D03*
X012735Y017318D03*
X012735Y018318D03*
X009291Y016025D03*
X009129Y016744D03*
X009129Y017744D03*
X009129Y018744D03*
X009129Y019744D03*
X009129Y020744D03*
X009129Y021744D03*
X009129Y022744D03*
X009129Y023744D03*
X008129Y023744D03*
X008129Y022744D03*
X008129Y021744D03*
X008129Y020744D03*
X008129Y019744D03*
X008129Y018744D03*
X008129Y017744D03*
X007629Y016744D03*
X007129Y017744D03*
X007129Y018744D03*
X007129Y019744D03*
X007129Y020744D03*
X007129Y021744D03*
X007129Y022744D03*
X007129Y023744D03*
X006129Y023744D03*
X006129Y022744D03*
X006129Y021744D03*
X006129Y020744D03*
X006129Y019744D03*
X006129Y018744D03*
X006129Y017744D03*
X006591Y016725D03*
X005129Y017744D03*
X005129Y018744D03*
X005129Y019744D03*
X005129Y020744D03*
X005129Y021744D03*
X005129Y022744D03*
X004129Y022744D03*
X004129Y021744D03*
X004129Y020744D03*
X004129Y019744D03*
X004129Y018744D03*
X004129Y017744D03*
X012735Y007318D03*
X012735Y006318D03*
X013235Y006318D03*
X013735Y006318D03*
X013735Y005318D03*
X013235Y005318D03*
X012735Y005318D03*
X012735Y004318D03*
X013235Y004318D03*
X013735Y004318D03*
X015435Y004518D03*
X015835Y004518D03*
X015835Y004918D03*
X015835Y005318D03*
X015835Y005718D03*
X015435Y005718D03*
X015435Y005318D03*
X015435Y004918D03*
X015835Y006218D03*
X017035Y006218D03*
X017035Y005718D03*
X017435Y005718D03*
X017435Y005318D03*
X017435Y004918D03*
X017435Y004518D03*
X017035Y004518D03*
X017035Y004918D03*
X017035Y005318D03*
X017935Y006218D03*
X018735Y006218D03*
X019135Y005718D03*
X019735Y005718D03*
X019735Y006218D03*
D17*
X020124Y006269D02*
X012147Y006269D01*
X012147Y006161D02*
X020124Y006161D01*
X020124Y006052D02*
X012147Y006052D01*
X012147Y005944D02*
X014114Y005944D01*
X014121Y005956D02*
X014101Y005920D01*
X014090Y005881D01*
X014090Y004916D01*
X014640Y004916D01*
X014640Y006016D01*
X014225Y006016D01*
X014185Y006005D01*
X014150Y005985D01*
X014121Y005956D01*
X014090Y005835D02*
X012147Y005835D01*
X012147Y005727D02*
X014090Y005727D01*
X014090Y005618D02*
X012147Y005618D01*
X012147Y005510D02*
X014090Y005510D01*
X014090Y005401D02*
X012147Y005401D01*
X012147Y005293D02*
X014090Y005293D01*
X014090Y005184D02*
X012147Y005184D01*
X012147Y005076D02*
X014090Y005076D01*
X014090Y004967D02*
X012147Y004967D01*
X012147Y004859D02*
X014640Y004859D01*
X014640Y004806D02*
X014640Y004916D01*
X014750Y004916D01*
X014750Y006016D01*
X015165Y006016D01*
X015205Y006005D01*
X015240Y005985D01*
X015269Y005956D01*
X015289Y005920D01*
X015300Y005881D01*
X015300Y004916D01*
X014750Y004916D01*
X014750Y004806D01*
X015300Y004806D01*
X015300Y004006D01*
X017570Y004006D01*
X017570Y004806D01*
X018120Y004806D01*
X018120Y004916D01*
X018120Y006016D01*
X017705Y006016D01*
X017665Y006005D01*
X017630Y005985D01*
X017601Y005956D01*
X017581Y005920D01*
X017570Y005881D01*
X017570Y004916D01*
X018120Y004916D01*
X018230Y004916D01*
X018230Y006016D01*
X018645Y006016D01*
X018685Y006005D01*
X018720Y005985D01*
X018749Y005956D01*
X018769Y005920D01*
X018780Y005881D01*
X018780Y004916D01*
X018230Y004916D01*
X018230Y004806D01*
X018779Y004806D01*
X018991Y005017D01*
X019272Y005134D01*
X019577Y005134D01*
X019858Y005017D01*
X020073Y004802D01*
X020124Y004679D01*
X020123Y008247D01*
X012147Y008247D01*
X012147Y003711D01*
X014157Y003710D01*
X014080Y003786D01*
X014080Y003915D01*
X014090Y003925D01*
X014090Y004806D01*
X014640Y004806D01*
X014750Y004859D02*
X018120Y004859D01*
X018120Y004967D02*
X018230Y004967D01*
X018230Y004859D02*
X018832Y004859D01*
X018780Y004967D02*
X018941Y004967D01*
X018780Y005076D02*
X019132Y005076D01*
X018780Y005184D02*
X020124Y005184D01*
X020124Y005076D02*
X019717Y005076D01*
X019908Y004967D02*
X020124Y004967D01*
X020124Y004859D02*
X020017Y004859D01*
X020095Y004750D02*
X020124Y004750D01*
X020124Y005293D02*
X018780Y005293D01*
X018780Y005401D02*
X020124Y005401D01*
X020124Y005510D02*
X018780Y005510D01*
X018780Y005618D02*
X020124Y005618D01*
X020124Y005727D02*
X018780Y005727D01*
X018780Y005835D02*
X020124Y005835D01*
X020124Y005944D02*
X018756Y005944D01*
X018230Y005944D02*
X018120Y005944D01*
X018120Y005835D02*
X018230Y005835D01*
X018230Y005727D02*
X018120Y005727D01*
X018120Y005618D02*
X018230Y005618D01*
X018230Y005510D02*
X018120Y005510D01*
X018120Y005401D02*
X018230Y005401D01*
X018230Y005293D02*
X018120Y005293D01*
X018120Y005184D02*
X018230Y005184D01*
X018230Y005076D02*
X018120Y005076D01*
X017570Y005076D02*
X015300Y005076D01*
X015300Y005184D02*
X017570Y005184D01*
X017570Y005293D02*
X015300Y005293D01*
X015300Y005401D02*
X017570Y005401D01*
X017570Y005510D02*
X015300Y005510D01*
X015300Y005618D02*
X017570Y005618D01*
X017570Y005727D02*
X015300Y005727D01*
X015300Y005835D02*
X017570Y005835D01*
X017594Y005944D02*
X015276Y005944D01*
X014750Y005944D02*
X014640Y005944D01*
X014640Y005835D02*
X014750Y005835D01*
X014750Y005727D02*
X014640Y005727D01*
X014640Y005618D02*
X014750Y005618D01*
X014750Y005510D02*
X014640Y005510D01*
X014640Y005401D02*
X014750Y005401D01*
X014750Y005293D02*
X014640Y005293D01*
X014640Y005184D02*
X014750Y005184D01*
X014750Y005076D02*
X014640Y005076D01*
X014640Y004967D02*
X014750Y004967D01*
X015300Y004967D02*
X017570Y004967D01*
X017570Y004750D02*
X015300Y004750D01*
X015300Y004642D02*
X017570Y004642D01*
X017570Y004533D02*
X015300Y004533D01*
X015300Y004425D02*
X017570Y004425D01*
X017570Y004316D02*
X015300Y004316D01*
X015300Y004208D02*
X017570Y004208D01*
X017570Y004099D02*
X015300Y004099D01*
X014090Y004099D02*
X012147Y004099D01*
X012147Y003991D02*
X014090Y003991D01*
X014080Y003882D02*
X012147Y003882D01*
X012147Y003774D02*
X014093Y003774D01*
X014090Y004208D02*
X012147Y004208D01*
X012147Y004316D02*
X014090Y004316D01*
X014090Y004425D02*
X012147Y004425D01*
X012147Y004533D02*
X014090Y004533D01*
X014090Y004642D02*
X012147Y004642D01*
X012147Y004750D02*
X014090Y004750D01*
X012147Y006378D02*
X020124Y006378D01*
X020124Y006486D02*
X012147Y006486D01*
X012147Y006595D02*
X020124Y006595D01*
X020124Y006703D02*
X012147Y006703D01*
X012147Y006812D02*
X020124Y006812D01*
X020124Y006920D02*
X012147Y006920D01*
X012147Y007029D02*
X020123Y007029D01*
X020123Y007137D02*
X012147Y007137D01*
X012147Y007246D02*
X020123Y007246D01*
X020123Y007354D02*
X012147Y007354D01*
X012147Y007463D02*
X020123Y007463D01*
X020123Y007571D02*
X012147Y007571D01*
X012147Y007680D02*
X020123Y007680D01*
X020123Y007788D02*
X012147Y007788D01*
X012147Y007897D02*
X020123Y007897D01*
X020123Y008005D02*
X012147Y008005D01*
X012147Y008114D02*
X020123Y008114D01*
X020123Y008222D02*
X012147Y008222D01*
M02*
